<?xml version="1.0" encoding="UTF-8" standalone="no"?>
<!-- Created with Inkscape (http://www.inkscape.org/) -->

<svg
   width="270.93332mm"
   height="270.93332mm"
   viewBox="0 0 270.93332 270.93332"
   version="1.1"
   id="svg1148"
   xmlns="http://www.w3.org/2000/svg"
   xmlns:svg="http://www.w3.org/2000/svg">
  <defs
     id="defs1145" />
  <g
     id="layer1"
     transform="translate(-58.290482,54.380947)">
    <path
       style="fill:#010101;stroke:none;stroke-width:0.264583"
       d="m 232.65089,-19.191365 c -1.48696,0.03175 -2.45957,0.230187 -2.64583,1.852083 -0.65908,-0.18759 -1.56766,-0.442119 -1.95713,0.348721 -0.53313,1.082939 -0.1344,2.96545 -0.16351,4.149195 -0.0622,2.544763 -0.38708,5.1472042 -0.71517,7.6729166 -1.74307,13.4125222 -3.72771,26.7009554 -4.30794,40.2166644 h -0.26459 c 0.005,-7.646193 -0.59928,-15.656189 0.34026,-23.283332 0.821,-6.6632663 3.36391,-12.7830785 3.36391,-19.5791656 0,-3.6115624 -0.46276,-7.2694264 -0.94615,-10.8479164 -0.11959,-0.884766 0.25718,-2.871787 -0.33311,-3.545416 -0.99166,-1.132417 -5.92878,-0.585523 -7.45199,-0.732896 -7.59116,-0.734483 -14.62061,-1.313656 -22.225,-0.254 -14.72935,2.052108 -29.66878,0.427567 -44.45,-0.219869 -8.60769,-0.376766 -17.36486,1.024467 -25.92916,0.209286 -7.34748,-0.699294 -14.90715,-0.704321 -22.225,0.309562 -1.83383,0.254 -6.226439,0.516202 -7.487179,1.936221 -2.736321,3.082396 -0.467783,8.79766 -0.450585,12.3512784 0.0553,11.4453453 0.246327,22.9367276 0.264848,34.3958316 0.02487,15.500878 -2.889515,30.622344 -3.944938,46.037498 -0.47281,6.902979 1.067858,13.964972 1.034256,20.902082 -0.03307,6.888427 -1.414991,13.751981 -1.583266,20.637501 -0.174625,7.14216 1.069975,14.31766 1.559719,21.43125 0.264583,3.84069 0.528637,7.78563 0.264583,11.64166 -0.396611,5.79544 -1.526646,11.52181 0.288396,17.19792 -2.189692,0.91757 -0.601398,2.36008 -0.19394,3.96901 0.847725,3.34804 2.212446,7.26784 3.872971,10.30288 0.609864,1.11469 1.662906,1.31021 2.406385,0.28019 4.27884,2.91068 8.9027,5.7531 12.7,9.28397 1.03928,0.96652 3.39778,3.94202 4.23333,1.29936 2.45269,-0.002 4.73313,-1.12289 7.14375,-1.04695 2.22118,0.0701 4.40214,0.79057 6.61459,1.00198 4.31958,0.41275 9.1641,0.31776 13.49374,0.0214 6.15236,-0.42148 12.03511,-2.09048 18.25625,-1.81822 9.21571,0.40375 18.25572,1.3126 27.51667,1.3126 3.29459,0 7.38029,0.6522 10.58201,-0.14103 2.01268,-0.49847 1.13559,-2.30055 1.74254,-3.82772 1.23323,-3.1033 2.75749,-6.10553 3.85181,-9.26042 0.6395,-1.84388 1.11257,-3.56764 -1.3597,-3.70416 1.64201,-2.1389 3.69809,-2.83898 5.50731,-4.55745 1.78937,-1.69942 3.39672,-5.72876 3.75311,-8.14255 h 0.26458 c -0.33469,2.64662 -0.72972,5.31468 -1.21999,7.9375 -0.18653,0.998 -0.71464,2.41405 0.2458,3.17235 1.0922,0.86254 2.68896,0.20558 3.88461,-0.0529 3.63987,-0.78687 7.31255,-1.95315 10.84792,-3.1197 12.37932,-4.0849 25.66299,-4.16798 37.83541,-8.78178 2.15106,-0.81545 4.38177,-1.66529 6.61458,-2.227 0.8136,-0.20479 2.1008,0.26908 2.75088,-0.31142 0.96996,-0.86624 0.36671,-3.63405 0.44767,-4.81912 0.31115,-4.54051 1.32821,-8.98313 1.86955,-13.49375 1.338,-11.14557 1.59729,-22.40888 2.36379,-33.60208 0.49821,-7.2726 1.76821,-14.674847 1.82853,-21.960414 1.75181,-0.28575 2.13492,-2.289439 2.85909,-3.704166 1.72826,-3.376348 3.9198,-6.471708 5.25859,-10.054166 1.69307,-4.531254 1.56554,-9.184481 2.28018,-14.022916 0.46117,-3.122348 1.65894,-6.140979 2.11429,-9.260417 0.13864,-0.949854 -0.38894,-1.760008 -0.27173,-2.690812 0.48763,-3.871383 1.61502,-7.698845 2.12169,-11.596687 0.4027,-3.100123 1.01256,-6.189927 1.26789,-9.260416 0.0669,-0.804862 0.87048,-2.005542 0.0844,-2.689225 -0.66172,-0.575469 -1.83568,-0.02143 -2.48523,0.306652 -2.22912,1.126596 -4.21058,2.920471 -6.35,4.234656 0,-7.391399 2.64054,-14.7663949 3.15145,-22.2249987 0.35772,-5.2239331 -1.20174,-10.7653663 -0.18812,-15.8749993 0.66516,-3.353329 1.1639,-6.71777 1.91162,-10.054166 0.17832,-0.796131 1.12818,-2.757143 0.25611,-3.380793 -0.83476,-0.596979 -2.41591,0.467942 -3.27898,0.658389 -3.21336,0.709189 -6.28967,1.014783 -9.525,1.75641 -4.36774,1.000919 -8.80798,1.045633 -13.22916,1.570831 -6.98659,0.829734 -13.92767,2.048934 -20.90209,2.987146 -3.21019,0.4318 -6.55134,0.885031 -9.78958,0.906198 -1.54199,0.01005 -3.03133,0.04789 -3.175,1.851819 m 57.94375,-7.14375 v 0.264583 l -1.32292,0.264584 1.32292,-0.529167 m -1.32292,0.79375 -0.79375,3.439583 h -0.26458 c -0.31909,-1.050925 -0.99193,-1.42875 -2.11667,-1.252008 -3.36947,0.529431 -6.94769,1.387739 -10.31875,2.101585 -10.74499,2.275152 -21.31959,4.659577 -32.27916,5.720027 -2.79612,0.270669 -5.66023,0.522552 -8.46667,0.574939 -0.97049,0.01826 -3.35783,0.252413 -4.0595,0.97499 -0.56991,0.58711 0.0362,1.763448 0.0754,2.4638 0.10531,1.880129 -0.35665,3.9528747 -0.58922,5.8208329 -1.00463,8.0745538 -2.8538,16.0276641 -3.89335,24.0770821 h -0.26458 l 3.70417,-35.718748 5.29166,0.04392 10.58334,-1.295136 31.48541,-5.201708 11.90625,-1.74916 m -66.41041,5.027083 c 0.60722,4.803775 1.63115,9.96897 1.29937,14.8166659 -0.38391,5.60255185 -2.46486,10.8770203 -3.29962,16.4041661 -0.21934,1.452562 0.43471,2.805906 0.26537,4.233333 -0.12144,1.024996 -0.79533,1.894681 -0.89032,2.910416 -0.75724,8.094398 0.712,16.436181 -0.0656,24.606249 -1.63433,17.174368 -5.41072,34.13363 -7.05379,51.329164 -0.78872,8.253149 -0.57414,16.577209 -0.57414,24.870829 0,9.79065 -2.20689,19.14499 -3.13002,28.83959 -0.42281,4.43812 1.11601,10.05945 -0.50589,14.2875 -0.92233,2.40374 -4.23148,4.07511 -6.26586,5.43454 -1.33403,0.89138 -3.36259,0.84904 -4.9149,1.06786 -4.37647,0.61674 -8.81618,0.85433 -13.22916,0.90699 -10.23991,0.12171 -20.44489,0.38655 -30.69167,0.26458 -4.1058,-0.049 -8.34787,0.3429 -12.43542,-0.046 -5.72584,-0.54477 -11.7086,-0.48418 -17.46249,-0.48418 -1.87114,0 -4.96041,-0.62522 -6.35,0.79375 l -1.5875,-0.79375 c 1.80869,-5.69331 0.15689,-11.91895 -0.24077,-17.72709 -0.72232,-10.54655 -1.34673,-21.44977 -1.34673,-32.01458 0,-8.10233 -0.26485,-16.26526 0.28839,-24.341665 0.76967,-11.240558 2.55006,-22.386395 3.63538,-33.602082 1.14062,-11.786129 1.36789,-23.606388 1.36789,-35.454165 0,-11.663626 -0.89006,-23.8389571 0.21961,-35.4541649 0.28257,-2.9572481 0.78845,-5.7988721 1.26365,-8.7312491 0.11959,-0.736865 0.002,-2.303727 -1.18481,-1.805517 -0.92075,0.386556 -1.02896,1.761067 -1.19803,2.599267 -0.49768,2.469091 -0.73316,4.91781 -1.02791,7.408332 -1.23243,10.40923748 -0.18917,21.526764 -0.18917,32.014582 0,11.957843 0.0299,24.082903 -1.10332,35.983332 -1.24486,13.073326 -3.26787,26.061192 -4.16454,39.158331 -0.90249,13.176779 0.44397,26.281059 0.76597,39.422919 0.13785,5.62742 0.17224,11.31649 0.55695,16.93333 0.23574,3.44355 1.03452,6.85985 1.03452,10.31875 0,1.75207 -0.11589,3.92033 -1.00542,5.48375 -0.35613,0.62627 -1.34408,0.93901 -1.47478,1.67296 -0.10928,0.61331 0.47201,0.82577 0.8927,1.04537 v 1.5875 c -3.00487,-0.46858 -5.19165,-3.00117 -7.67292,-4.54686 -2.85988,-1.78171 -7.452515,-1.9013 -9.686392,-4.47675 -2.214034,-2.55244 -2.033059,-7.16624 -1.735667,-10.29097 0.647965,-6.80826 0.630502,-13.29822 0.299244,-20.10833 -0.392113,-8.06609 -1.507596,-15.96258 -1.308629,-24.07709 0.158221,-6.46191 1.318948,-12.825673 1.318948,-19.314578 0,-7.322608 -1.272382,-14.62405 -0.769938,-21.960416 0.95541,-13.953066 3.680354,-27.497351 3.680354,-41.539581 0,-11.515196 0.229923,-22.552818 0.525198,-33.8666653 0.07355,-2.8133145 0.525992,-5.6448847 0.193146,-8.4666667 -0.112977,-0.955675 -0.757238,-3.215216 -0.17145,-4.040716 1.039812,-1.465527 5.737756,-1.501246 7.390606,-1.70471 7.78166,-0.95885 15.73953,-0.07541 23.54792,-0.07541 6.70004,0 13.41358,-0.547423 20.10833,-0.254264 12.59416,0.551656 25.20579,1.461823 37.83541,1.311539 6.8371,-0.08123 13.49772,-1.931723 20.37292,-1.849966 5.30913,0.06297 10.5365,1.321858 15.875,1.321858 m 63.49999,-1.058333 c 0,4.477279 -1.32609,8.778874 -1.49674,13.2281074 -0.0373,0.9781645 0.65219,1.6949208 0.6641,2.6572103 0.0847,6.9246746 -0.95858,14.3330076 -2.14392,21.1563473 -1.05145,6.052078 -3.10568,11.938793 -4.05103,17.991665 -0.46541,2.979209 0.0482,5.999956 -0.49292,8.995833 -0.74454,4.120092 -2.35294,8.01661 -2.94958,12.170833 -0.74427,5.18451 -0.0434,10.409237 -0.40137,15.610416 -0.70538,10.24202 -2.12751,20.445411 -3.10647,30.691667 -0.87604,9.16808 -0.7583,18.34303 -1.85605,27.51667 -0.4064,3.3954 0.13043,7.62502 -0.98002,10.84791 -0.90885,2.63843 -3.49753,5.81793 -5.30939,7.92718 -3.04404,3.5433 -8.7974,3.67083 -13.06619,4.73922 -10.59471,2.65218 -20.40837,6.64819 -31.48541,6.64819 l -1.99205,-3.17527 -0.0667,-6.34973 -1.10066,-2.91042 0.76782,-17.72708 3.10965,-25.92917 1.15755,-19.050001 1.56395,-21.431249 c 1.37107,-0.748771 1.44754,-2.540265 1.73329,-3.96875 0.75565,-3.778514 0.91731,-7.573697 1.36604,-11.377083 0.20293,-1.718204 0.46831,-3.923506 -1.51183,-4.497916 l 0.7702,-11.377083 0.37201,-5.786702 1.6375,-2.680229 3.98727,-21.43098405 1.24593,-10.05416615 0.85434,-3.6568058 3.83275,-0.387615 11.37708,-1.057275 26.72292,-5.04481 10.84791,-2.28891 m -161.6604,9.524999 h -0.26459 c -0.13282,-1.013354 -0.2585,-2.0701 -1.32291,-2.38125 0.18229,4.244975 1.36128,8.4529083 1.36286,12.6999997 0.005,13.0989913 -1.2401,26.1209883 -2.1328,39.1583313 -0.42572,6.21321 0.65722,12.613481 -0.32756,18.780653 -0.16086,1.007534 -1.25624,1.4224 -1.37451,2.389982 -0.0984,0.807772 0.51356,1.527439 0.45218,2.381249 -0.79217,11.023071 -2.46777,22.010158 -2.73871,33.068947 -0.19605,7.997038 0.96176,15.630528 1.30863,23.547918 0.27067,6.18278 1.44251,12.34149 1.59385,18.52083 0.1233,5.0337 -0.95012,10.88205 -0.0685,15.61042 0.78396,4.20343 -0.21908,8.26188 3.25808,11.61706 2.63075,2.53841 7.10247,1.54252 10.57274,1.95236 10.7995,1.27476 21.69637,1.51183 32.54375,1.51183 8.0817,0 16.03799,0.0161 24.07709,-0.74877 3.44275,-0.32756 7.22418,-0.42201 10.25842,-2.18255 1.01812,-0.59055 0.93054,-2.14842 1.39144,-3.10912 1.87034,-3.89916 1.85658,-9.22681 2.52545,-13.53873 2.20372,-14.20944 3.81529,-28.42604 4.26826,-42.86249 0.13441,-4.27938 3.2557,-8.506892 1.81187,-12.744987 -0.5379,-1.57824 0.19923,-3.176323 0.48392,-4.717521 0.48524,-2.625725 0.53446,-5.305425 0.9779,-7.9375 0.22595,-1.340643 1.42372,-3.663949 -0.28602,-4.233333 l 3.175,-37.041665 1.05834,-0.264583 c -0.79931,-4.306093 -0.30692,-8.767233 0.27411,-12.964583 0.21087,-1.525322 -0.14949,-3.794389 0.78422,-5.027083 -0.48657,-2.66065 0.70988,-5.057245 0.96838,-7.672916 0.52943,-5.3551663 0.38126,-10.7550473 0.44529,-16.1395825 0.036,-3.0165144 0.76676,-7.8062665 -1.9468,-9.9739975 -1.74149,-1.390914 -4.54211,-0.924454 -6.61062,-0.877887 -4.3725,0.09843 -8.83179,-0.260615 -13.22916,-0.260615 -17.68661,0 -35.25838,-2.509837 -52.91667,-0.339989 -2.98212,0.366447 -5.98937,0.873918 -8.99583,0.869156 -2.4638,-0.004 -4.93527,-0.524669 -7.40833,-0.215636 -1.88013,0.23495 -3.38905,1.325563 -3.96875,3.126052 m 91.28124,0.264584 1.57215,7.1437492 -1.56183,17.9916658 -0.46381,6.35 -0.4998,2.373841 -3.28004,-0.06826 -7.40834,-0.638704 -8.20208,1.112572 -4.7625,-0.84111 -9.26041,1.490927 -17.19792,-1.312598 v -2.38125 l 10.84792,-0.788987 6.08568,1.048544 14.55182,-1.271852 3.68061,0.359039 11.9298,-1.992577 c 0.15002,1.084263 0.33152,1.839913 1.32292,2.38125 0.5625,-4.248414 1.37001,-8.382 1.55998,-12.6999993 0.10716,-2.4399874 -0.59267,-4.9646415 -0.37888,-7.408333 0.17542,-2.0047478 0.89826,-7.2546101 -0.88741,-8.7262225 -0.98399,-0.8112122 -4.04019,-0.6350002 -5.31945,-0.7802562 -1.2745,-0.144727 -1.92432,-1.261004 -3.17765,-1.315508 -3.0181,-0.131234 -5.92561,1.332441 -8.99451,1.295929 -15.67365,-0.186267 -31.43276,-1.638565 -47.09583,0.418041 -3.84757,0.50509 -8.02904,1.1644317 -11.90625,1.1705171 -1.91055,0.00291 -4.15766,-0.7911041 -5.55625,0.79375 -2.19551,0.096573 -1.88859,3.8811727 -1.84811,5.5562497 0.0881,3.6610394 1.15332,7.2064559 1.25042,10.8479161 0.0524,1.9621501 -0.57362,3.8388391 -0.48445,5.8208331 0.0609,1.347787 -0.8181,4.651639 0.18362,5.661289 1.37451,1.385094 5.22314,-0.01138 6.98394,0.238919 8.40766,1.195387 16.2216,0.68924 24.60625,-0.873125 l 0.52916,2.645833 -14.2875,0.521494 -6.35,-0.511175 -6.87916,1.048015 -6.61458,0.188912 -2.37385,-0.348456 -0.0524,-2.750873 0.41116,-6.879166 0.0119,-5.7972855 1.99152,-5.050631 -0.7821,-14.8166655 36.77708,-0.792692 8.46666,1.053306 8.99584,-1.298046 33.86666,1.831182 m -36.77708,2.6458328 v 0.2645833 l -7.40833,0.2645833 7.40833,-0.5291666 m 33.3375,0.5291666 0.26061,14.022916 -0.78978,9.2604166 -16.13958,1.048014 -39.95208,0.814388 -23.54792,1.841764 0.78343,-7.9375 -0.59796,-5.8208326 0.87286,-11.3770827 10.31875,-0.7834313 16.40417,1.5771812 v -0.2645833 l -9.26042,-1.3229166 v -0.2645833 l 23.28334,0.7937499 V -7.285116 h -0.79375 c 2.45057,-1.030552 5.83353,-0.519377 8.46666,-0.8276166 6.63443,-0.7768166 14.15415,-0.7807854 20.90208,-0.4849812 3.24459,0.1423458 6.62835,1.1419416 9.78959,-0.010319 m 75.67083,0.79375 c 0.004,5.4300435 -0.17092,10.4494536 -0.78052,15.8749992 -0.18627,1.6584082 -0.15875,5.0707396 -1.60073,6.0854166 0.4818,-3.791744 1.14511,-7.5527957 1.3126,-11.377083 0.14234,-3.25225819 -0.28708,-7.5633788 1.06865,-10.5833328 M 138.99342,-0.793829 c -2.89639,0.71278746 -2.09126,8.5812308 -2.06216,10.971212 0.013,1.072886 0.42704,2.351088 1.76503,1.99681 1.2499,-0.330729 1.17714,-2.035704 1.41262,-3.0551433 0.45243,-1.9584458 2.86173,-10.891837 -1.11549,-9.9128787 m -11.11752,0.65246246 -0.26459,3.43958314 h -0.26458 l 0.52917,-3.43958314 m 12.43541,0.26458332 c 0,2.80273112 -0.34925,5.45570802 -0.89958,8.20208292 -0.23151,1.1554354 -0.25294,2.4799393 -1.48167,2.9104163 L 139.25298,1.9753 h -1.05834 c 0.36725,-1.34090824 0.67893,-1.80498738 2.11667,-1.85208322 M 274.71964,17.585716 c -2.26325,-3.723216 -8.10154,-1.694391 -11.37708,-0.616214 -7.6163,2.506927 -15.82341,3.139545 -23.54792,5.553074 -1.55099,0.484452 -5.97032,0.53975 -6.98288,1.572684 -1.58803,1.620043 2.90406,2.476235 3.83143,2.670968 3.0054,0.630767 8.02349,-1.103048 11.08895,-1.617133 3.55362,-0.595842 7.06041,-1.345142 10.58333,-2.096823 5.09429,-1.086908 10.14016,-1.693333 14.81667,-4.143639 -0.94377,2.836068 1.04854,4.613274 -1.85235,7.063051 -1.86346,1.573742 -4.20105,1.043252 -6.34973,1.914525 -2.2524,0.913077 -3.87642,2.363523 -6.35,2.992173 -5.57186,1.416315 -11.76338,1.546225 -17.4625,2.429933 -2.82364,0.437886 -7.561,2.391834 -10.30738,1.278996 -2.75193,-1.115219 -2.43205,-5.452533 -2.06295,-7.741179 0.13044,-0.808302 0.50165,-2.742141 -0.8591,-2.742141 -1.27106,0 -1.34806,2.128573 -1.474,3.006725 -0.42624,2.974975 -0.13599,6.827837 2.27939,8.935508 2.41247,2.105289 6.46747,0.683418 9.24904,0.163247 5.48534,-1.026054 10.91988,-1.027641 16.40416,-1.766887 1.99258,-0.268552 3.84334,-1.080558 5.82084,-1.394883 2.00421,-0.318823 9.66522,0.242623 8.99583,-2.761985 1.44462,-0.652463 3.21733,-1.08294 4.47304,-2.06084 2.78924,-2.173023 3.94547,-6.574631 4.24577,-9.84541 0.0971,-1.056746 1.20439,-3.374231 0.11827,-4.224866 -1.51738,-1.187979 -2.89322,2.50481 -3.28083,3.431116 m -4.7625,0.264583 v 0.264584 l -2.11667,0.529166 c 0.22596,-1.054893 1.18772,-0.79375 2.11667,-0.79375 m 3.70416,0.529167 -0.52916,0.529167 0.52916,-0.529167 m -121.17916,1.058333 v 0.264584 l -10.31875,0.264583 c 2.56091,-1.074737 7.49512,-0.527315 10.31875,-0.529167 m 132.29166,1.322917 c 0.87525,2.960423 0.55087,8.384645 -0.34448,11.342951 -0.70962,2.34368 -1.91956,3.918479 -2.03677,6.648715 h -0.26458 c 2.7e-4,-2.246842 0.60775,-4.398433 0.68951,-6.614583 0.12938,-3.497527 0.0196,-8.164777 1.95632,-11.377083 m 8.20209,1.852083 -0.26459,0.264584 0.26459,-0.264584 m -94.72083,0.529167 -0.26458,0.264583 0.26458,-0.264583 m 16.93333,0 v 0.529166 h -0.52917 v -0.529166 h 0.52917 m 76.99375,0.264583 c -0.73872,2.2987 -2.67626,5.094552 -5.29167,5.291667 l 0.26458,-4.233334 c 2.26034,0.45773 3.0189,-0.03995 5.02709,-1.058333 m -76.99375,0.79375 -1.04299,5.557308 -0.27993,18.255191 c -3.03053,1.49516 -1.59332,7.749645 -1.92775,10.583333 -1.26418,10.71536 -2.83475,22.011745 -2.83475,32.808331 -8.58493,0.677598 -18.3081,0.16854 -26.72291,-1.759743 -5.92534,-1.358106 -11.69829,-4.043098 -17.72708,-4.85484 l -1.32292,-1.587499 c 2.32913,-4.608513 0.77232,-9.444037 0.30956,-14.2875 -0.24923,-2.606675 0.0325,-5.353579 0.37201,-7.937499 0.17065,-1.301221 0.0534,-6.030648 -2.00449,-6.030648 -1.43615,0 -0.97155,5.413639 -1.07817,6.559814 -0.66437,7.145602 -0.0852,13.790877 0.81359,20.902083 -2.83739,2.409295 -6.22353,2.828131 -9.78958,3.673474 -6.89663,1.635125 -13.73876,2.113227 -20.6375,3.47054 -2.57016,0.505619 -5.14932,0.653256 -7.67292,1.400439 -0.77708,0.230188 -2.25584,0.527844 -2.40215,1.520825 -0.15954,1.083734 1.50839,0.868627 2.13757,0.955675 2.36643,0.327025 4.26032,0.324379 6.61458,-0.103716 7.40807,-1.347259 14.80767,-3.1369 22.225,-4.620154 2.30823,-0.461434 6.42885,-0.591344 7.67292,-2.8575 h 0.26458 c 0.31141,1.967971 1.66079,1.604962 2.64583,0.264583 13.02041,5.126302 27.80401,7.9375 41.80417,7.9375 -0.65299,1.223433 -3.21125,1.458648 -4.49792,1.756568 -4.30345,0.996157 -8.44444,2.01295 -12.7,3.116263 -2.45427,0.636323 -4.68921,1.892833 -7.14375,2.432583 -5.73563,1.26126 -11.66839,1.42001 -17.4625,2.27832 -7.88273,1.16787 -15.72445,3.14643 -23.54791,4.70376 -3.9333,0.78291 -7.92798,1.58803 -11.90625,2.09471 -1.12025,0.14261 -3.68644,0.0958 -4.4024,1.10966 -1.50098,2.1262 3.72956,1.19989 4.4024,1.08771 5.45729,-0.90938 11.01857,-1.64836 16.40416,-2.93238 17.13812,-4.08623 34.81441,-4.88183 51.85834,-9.14294 1.45547,-0.3638 3.77613,-0.560919 5.01967,-1.381657 0.62521,-0.412485 0.72152,-1.210204 1.35969,-1.572683 1.25466,-0.713052 2.88608,-0.828675 4.20397,-1.491985 1.14088,-0.574411 1.42848,-2.115079 2.38125,-2.322513 -0.92869,3.589602 -0.56753,7.197198 -0.8173,10.847918 -0.50482,7.36785 -0.96573,14.66215 -1.87722,21.96041 -0.40931,3.27793 -1.92828,6.35477 -2.59583,9.525 -1.68142,7.98301 -2.74293,17.00742 -2.91173,25.13542 l -7.67292,2.07169 -10.58333,-0.48393 -15.875,0.52494 -21.96042,-0.28417 -10.31875,-0.13361 -6.08541,0.15716 c -2.76146,-3.66739 -4.48496,-7.49432 -4.49792,-12.17083 l 13.49375,-1.60867 11.37708,-2.27303 6.61458,0.16721 3.43959,-0.61753 2.91041,0.88079 6.08542,-0.0516 4.7625,2.1799 c -0.91123,2.92682 0.37227,4.99692 2.64583,6.87917 -1.26206,0.17939 -4.06029,-2.00634 -3.175,0.79375 -2.17858,-0.35692 -1.29751,-6.04441 -2.87178,-7.84199 -0.70089,-0.8001 -2.5871,-0.13996 -2.48815,0.97738 0.0968,1.0914 1.14644,1.69439 1.0713,2.89586 -0.0757,1.20623 0.25718,2.0275 0.58447,3.175 -3.66501,-0.52996 -2.422,-4.21772 -4.23201,-6.5704 -1.87563,-2.43813 -0.96626,2.75696 -0.79905,3.3954 0.25453,0.97049 0.26803,1.914 0.26856,2.91042 -0.57732,-0.49134 -3.18797,-5.27447 -3.79519,-3.14775 -0.16192,0.56647 0.0855,1.22793 -0.0169,1.82351 -0.0984,0.57255 -0.18362,1.00462 -0.15663,1.58882 l -1.05834,-0.79375 v -0.26458 l -1.05595,-3.175 -0.002,-3.43959 c -3.24115,-0.82312 -2.23546,4.0431 -1.5875,5.82084 l -1.32292,0.52916 c -0.32014,-0.60748 -0.5625,-1.20544 -0.79428,-1.85235 -0.39793,-1.11151 -2.38442,-2.80669 -2.0656,-0.52757 0.31089,2.2217 4.04945,8.90984 5.24113,3.96742 l 2.91042,2.38125 c -0.60007,2.16456 3.76238,4.59529 4.23333,1.5875 -2.17408,-0.39237 -2.97947,-1.32265 -2.64583,-3.43958 1.0586,0.85037 3.39143,3.47054 3.43958,0.52917 1.61105,0.45481 2.72865,0.89164 3.70417,-0.79375 h 0.26458 c 0.80196,1.54172 2.94323,3.35412 3.70417,0.79375 2.79744,1.74148 5.83195,1.49807 8.49048,3.60547 0.5244,0.41593 1.78197,1.29064 2.36511,0.48948 0.635,-0.87206 -1.00145,-1.61369 -1.45521,-2.08148 -0.55033,-0.567 -0.83873,-1.59676 -1.55548,-1.97193 -0.59426,-0.31115 -1.37584,0.15107 -2.03439,0 -1.03214,-0.23707 -1.9505,-0.92128 -2.90009,-1.36446 l -1.5875,-5.82083 c 4.79107,1.7436 8.70849,4.97998 13.22916,7.2083 0.966,0.47625 3.92589,2.28442 4.85193,1.14962 1.27318,-1.56025 -3.59516,-3.80868 -4.58734,-4.32091 -6.15262,-3.1758 -12.41293,-6.05896 -18.52084,-9.32868 0.10002,-2.68737 -3.5724,-1.32768 -5.29166,-1.32292 0.55324,-2.3233 0.18388,-4.77652 0.59531,-7.14375 0.42492,-2.44607 2.12646,-4.08728 2.46618,-6.35 0.69691,-4.64396 -0.44503,-10.68466 -1.05701,-15.34583 -0.30718,-2.33918 0.081,-4.52014 -0.34951,-6.87917 -0.12542,-0.68659 -0.10134,-2.04178 -1.12581,-2.02512 -1.00065,0.0161 -1.04378,1.31816 -1.05701,2.02512 -0.0437,2.31828 0.022,4.57624 -0.31088,6.87917 -0.32174,2.227 -1.14909,4.37303 -1.46712,6.61458 -1.0623,7.49327 -0.80856,15.0876 0.71835,22.48959 -9.52527,-0.75168 -18.873,1.1885 -28.31042,2.30558 -3.37317,0.39952 -6.88869,-0.63236 -10.05416,0.60483 l -2.64187,-57.414577 3.43562,-30.162499 c 1.83409,-0.159808 3.49805,-0.969433 5.29166,-1.271323 6.55056,-1.102254 13.2551,-1.735137 19.84375,-2.622814 11.79248,-1.588559 23.6982,-2.560373 35.45417,-4.236244 4.75694,-0.678127 9.13182,-2.159264 13.75833,-3.344598 0.96176,-0.246591 4.12088,-0.384968 4.14179,-1.759214 0.0156,-1.021292 -1.48538,-1.691481 -2.28971,-1.922198 -2.69425,-0.772848 -5.69806,-0.674687 -8.46666,-0.938212 -6.87388,-0.654315 -13.75675,-0.109538 -20.6375,-1.068917 -1.47929,-0.20611 -5.92217,-0.376502 -6.87176,-1.553633 -0.59293,-0.734748 -0.18151,-2.144183 -0.0828,-2.978679 0.23839,-2.020623 0.15055,-4.054475 0.41461,-6.085417 0.19473,-1.498864 -0.17675,-5.314685 0.72654,-6.455039 0.65167,-0.822589 2.55482,-0.387085 3.43218,-0.271727 3.13002,0.410898 6.14944,-0.406664 9.26041,-0.416719 5.89386,-0.01905 12.10125,-0.115358 17.99167,0.287867 6.25131,0.428096 13.2834,1.505215 19.31458,-0.817298 m -52.3875,0.79375 -0.81756,9.260416 -0.24077,7.9375 c -6.00392,0.04974 -11.88826,2.946929 -17.72708,4.114535 -3.99045,0.797983 -8.12959,0.216958 -12.17083,0.3937 -2.42094,0.106098 -4.75377,0.739246 -7.14375,1.048015 l 0.26458,-5.027083 h 0.26458 l 0.26459,4.233333 h 0.52916 c 1.0033,-4.21349 0.19791,-9.213056 0.0103,-13.49375 -0.11245,-2.571485 0.38603,-5.128947 0.25427,-7.672916 l 36.51249,-0.79375 m 128.32291,3.96875 c -0.001,1.957652 -0.67759,3.657071 -0.8456,5.55625 -0.15611,1.762918 0.48524,3.209131 0.10371,5.027083 -0.54874,2.614612 -1.76212,5.016499 -2.09285,7.672916 -0.81465,6.544204 -0.0725,12.955587 -3.30465,18.785416 -1.27211,2.294995 -1.67534,5.948362 -3.65019,7.672916 0.91731,-3.842279 1.13427,-7.98777 1.66211,-11.906249 1.034,-7.673975 2.22303,-15.321756 3.08716,-23.018749 0.1741,-1.551252 0.0849,-3.411273 0.95594,-4.757473 1.09061,-1.68566 4.28546,-1.182687 3.02604,-3.973777 v -0.264583 l 1.05833,-0.79375 m -99.21874,16.668749 v 0.529167 c -3.68829,0.158221 -7.45226,1.173162 -11.1125,1.698889 -1.74308,0.250031 -3.37926,0.182827 -3.70417,2.269861 -8.39734,0.02328 -17.10293,1.835414 -25.4,3.06361 -4.02087,0.595048 -8.32855,1.367366 -9.26041,-3.85736 l 9.26041,-3.2004 5.82084,-0.824177 6.08541,-1.735931 10.31875,1.482195 17.99167,0.574146 m -25.66458,-0.529167 -0.26459,0.264584 c 0.59611,2.02565 2.041,3.940439 4.23334,4.233333 l -3.43959,-4.497917 h -0.52916 m -8.46667,1.058334 c -0.46434,2.865172 3.18929,5.645943 5.82083,5.027083 v -0.529167 c -3.00434,-0.813329 -3.51234,-2.716477 -5.82083,-4.497916 m 64.29375,0.529166 c -0.21855,10.583598 -1.6338,21.189685 -2.3577,31.749999 -0.57997,8.462433 -0.74825,16.960584 -1.65497,25.4 -1.83542,17.08229 -4.44262,34.11643 -4.454,51.32916 h -0.26458 l -1.51871,-9.26041 2.81808,-21.43125 0.29845,-26.193751 2.5945,-22.224999 2.83924,-19.843749 1.69969,-9.525 m -71.70208,1.852084 -0.26459,0.264583 c 0.67628,1.446477 1.84018,2.43205 3.43959,2.645833 -0.43392,-1.318419 -1.95104,-2.342885 -3.175,-2.910416 m -6.08542,5.820833 -7.14375,0.709612 -4.23333,-2.297112 2.38125,2.645833 -11.1125,1.322917 0.26458,-5.55625 8.20209,-1.058333 -0.26459,0.793749 0.79375,-1.058333 8.03355,0.01773 3.07895,4.48019 m 135.46666,-3.175 -1.5875,6.614583 h -0.26458 l 1.05833,-6.879167 0.79375,0.264584 m 2.38125,2.116666 c -1.9468,7.902575 -3.37211,17.526529 -3.43958,25.664582 l -1.5875,-0.264583 0.69188,-8.466666 2.56673,-9.789583 0.97472,-7.14375 h 0.79375 m -9.21173,7.884848 c -2.01507,0.701146 -1.77324,4.496858 -2.06349,6.138068 -0.37729,2.1336 -1.83144,3.134519 -2.50745,5.027083 -1.15279,3.227917 1.06865,6.783123 -3.15066,8.435181 -3.85445,1.509184 -8.40661,0.720461 -12.43542,1.420548 -5.20144,0.903817 -10.43437,1.967706 -15.61041,3.003021 -3.07684,0.615685 -6.63284,1.639623 -9.78932,1.24116 -3.9833,-0.502708 -1.60761,-7.669741 -1.09723,-10.130895 0.19235,-0.927629 -0.11959,-2.570163 -1.46976,-1.793346 -1.05833,0.609071 -1.13665,2.839244 -1.34911,3.909748 -0.70247,3.53986 -1.76398,9.517062 3.12208,10.23911 3.05065,0.45085 6.27116,-0.392113 9.26042,-0.912548 6.00684,-1.045633 11.98218,-2.461154 17.99167,-3.393546 4.21745,-0.654314 9.00853,0.09472 12.96458,-1.786466 4.78314,-2.274359 5.66817,-10.773304 6.46509,-15.523633 0.16642,-0.991923 2.2053,-6.756135 -0.33099,-5.873485 m -13.27785,3.075252 c -4.68445,0.615156 -9.12072,2.078831 -13.75833,2.900098 -3.06044,0.541866 -6.26878,0.338402 -8.97229,2.138627 -1.03822,0.691356 -1.74387,1.721379 -2.93396,2.191543 -1.39171,0.549804 -4.13147,0.627327 -5.12789,1.788848 -0.68448,0.797719 0.2458,3.214423 1.21946,3.480594 1.7952,0.491066 5.02947,-1.086115 6.81884,-1.532996 3.26364,-0.814652 6.67174,-1.436688 9.78959,-2.734998 3.44143,-1.432983 6.91567,-3.448314 10.58333,-4.198937 2.32278,-0.475456 4.56115,-0.815975 6.87917,-1.359165 0.812,-0.1905 2.14868,-0.03995 2.53814,-0.989012 0.71517,-1.743604 -5.96741,-1.824831 -7.03606,-1.684602 m 18.52083,18.937816 c -0.37094,8.639174 -1.50204,17.301097 -2.09312,25.929157 -0.86201,12.59073 -1.14723,25.10341 -3.46313,37.57084 h -0.26458 l 2.10635,-42.8625 1.1594,-12.160512 1.1893,-2.395538 1.36578,-6.081447 m -116.15208,6.614583 6.35,4.260849 3.43959,3.412067 c 0.66913,-3.266546 -4.36351,-5.119687 -6.61459,-6.425406 -1.07024,-0.620713 -1.90288,-1.43801 -3.175,-1.24751 m -29.89791,1.852083 -0.52917,0.529166 v -0.529166 h 0.52917 m 21.69583,2.910416 c -0.5461,2.918619 3.83805,7.830865 6.61458,8.202085 l -3.58034,-3.968752 -3.03424,-4.233333 m -10.31875,1.5875 c -0.006,2.083329 3.31708,6.931815 5.55625,6.614585 -1.33773,-1.9566 -3.46578,-5.531645 -5.55625,-6.614585 m -13.49375,0.79375 -0.26458,0.264584 c 0.95223,2.042054 4.42992,5.973761 6.61458,6.614581 -0.58843,-2.47518 -4.09019,-5.825329 -6.35,-6.879165 m -3.175,4.233335 c 1.00965,1.94601 3.96346,5.66816 6.08542,6.35 -0.29528,-2.03492 -3.99256,-6.38123 -6.08542,-6.35 M 265.9888,125.5357 c -2.31907,4.87415 -7.99518,5.46788 -12.7,6.40292 -4.33123,0.86069 -8.55689,2.12831 -12.96458,2.54793 -6.33307,0.60325 -12.73255,0.0402 -19.05,0.83873 0.60457,-2.45374 1.01071,-5.15038 1.19882,-7.67185 0.0619,-0.82974 -0.31538,-2.00316 -1.40705,-1.62799 -0.93557,0.32147 -0.8509,1.63169 -0.96229,2.42068 -0.32544,2.30055 -0.75221,4.58337 -1.09432,6.87916 -0.13388,0.89773 -0.15372,2.05158 0.95753,2.27357 3.21733,0.64214 7.78166,-0.53049 11.09689,-0.67575 9.89118,-0.43312 19.23785,-1.35228 28.83958,-4.09204 4.77996,-1.36419 7.99227,-4.14126 8.92678,-9.14744 0.29025,-1.55416 0.96679,-7.35198 -2.01322,-7.02046 -0.9308,0.10346 -1.0361,1.27371 -1.15755,1.99337 -0.27067,1.60047 -1.50574,6.2701 0.32941,6.87917 m -14.02689,-4.35689 c -5.20594,0.10504 -11.42629,-0.31988 -16.40019,1.31921 -0.84482,0.27834 -6.74264,2.73526 -4.41352,4.00367 1.22846,0.6694 3.88223,-0.14631 5.20727,-0.32464 4.30556,-0.57917 8.66563,-0.7583 12.96458,-1.32292 1.17925,-0.15478 3.10965,0.27623 4.1185,-0.42412 1.40388,-0.97499 -0.0947,-3.27898 -1.47664,-3.2512 m -88.63144,0.65272 -0.79375,10.05417 h -0.26458 c 0,-2.67758 -0.47467,-7.81023 1.05833,-10.05417 m 106.62708,21.16667 1.5875,10.05417 -15.875,5.17948 -19.57917,3.34936 -22.225,6.28782 0.79375,-5.02708 h 0.26459 c 1.06468,1.38483 3.43297,3.55071 4.23333,0.79375 1.93305,0 3.9579,0.15954 5.81978,-0.47334 0.87894,-0.29898 1.51579,-1.06918 2.40585,-1.29567 2.77892,-0.7067 5.86661,-0.48577 8.7077,-1.1758 1.90474,-0.4625 5.26389,-0.75724 4.49792,-3.40519 4.2844,-0.99113 8.41375,-2.62758 12.7,-3.64199 3.30994,-0.7837 7.16439,-0.97287 10.05417,-2.90645 3.01598,-2.01771 3.99494,-5.51021 6.61458,-7.73906 m -120.65,14.55208 c -0.67654,-0.68236 -1.3417,-1.3634 -1.94045,-2.11666 l -1.00436,-1.31789 c -0.38047,-0.47731 -2.39448,-2.1971 -2.44713,-0.49504 -0.0593,1.91955 4.39764,7.03633 6.42646,6.03594 3.31179,-1.63327 -0.0362,-7.28186 -1.78567,-9.16569 -0.50059,-0.53923 -1.63724,-0.79137 -1.75419,0.21933 -0.27172,2.34765 2.71833,4.27964 2.50534,6.84001 m -6.08541,0.52917 c -0.36063,-0.87921 -0.762,-1.73831 -1.05066,-2.64583 -0.16669,-0.52388 -0.28628,-1.05992 -0.44265,-1.58618 -0.2884,-0.96996 -1.76186,-2.31325 -2.01665,-0.51488 -0.29581,2.08703 1.78382,7.49617 4.55638,6.40159 1.96454,-0.77575 0.73422,-2.39024 -1.04642,-1.6547 m -6.87917,0.52917 c -2.21853,-0.8427 -2.23493,-3.89044 -4.06691,-4.58735 -1.13453,-0.43154 -1.19803,0.98213 -0.96784,1.67719 0.5072,1.53274 4.04838,7.40013 5.29933,3.43932 0.67205,0.63527 1.39304,1.42796 2.37993,1.49834 0.75327,0.0537 1.79546,-0.53975 1.30228,-1.41579 -0.35031,-0.6223 -1.29355,-0.6596 -1.77165,-1.20359 -1.12501,-1.27952 -1.31921,-3.42582 -2.60826,-4.53892 -2.17197,-1.87564 -0.91017,2.36405 -0.62442,3.01413 0.31882,0.72469 0.69056,1.41605 1.05754,2.11667 m -9.17601,-4.21058 c -0.78105,0.46513 -0.3048,1.49516 0.002,2.09391 0.6178,1.20465 3.07552,5.95815 4.85484,5.18398 0.78396,-0.34105 0.34396,-1.25862 0.0108,-1.74466 -0.65987,-0.96229 -3.59384,-6.29206 -4.86807,-5.53323 m 88.55101,2.35849 c 3.00117,3.77084 4.71434,4.06268 9.26041,3.96875 v 0.26459 l -8.20208,0.52916 c -0.29977,-1.19909 -0.42069,-2.0574 -1.5875,-2.64583 l 0.52917,-2.11667 m -79.11042,1.85209 -0.26458,0.26458 0.26458,-0.26458 m 15.44162,0.55192 c -1.38377,0.8329 1.49383,3.57584 2.72917,2.86596 1.57745,-0.90593 -1.6502,-3.51525 -2.72917,-2.86596 m 33.24172,4.73974 v 0.26459 l -14.02292,0.52916 -25.13542,-0.52916 c 3.23559,-1.45257 7.92004,-0.26459 11.37709,-0.26459 h 27.78125 m -89.164583,3.43959 c 4.268253,2.42675 10.184603,2.75642 13.245573,7.22973 1.84679,2.69849 2.40691,7.37315 3.42318,10.49735 -1.34065,-0.41593 -1.21338,-1.70286 -1.58142,-2.91042 -0.7157,-2.3487 -1.52294,-4.75006 -2.77574,-6.8752 -1.7907,-3.03821 -4.86225,-3.57214 -7.54909,-5.22102 -1.414201,-0.8681 -5.334268,-0.76464 -4.762503,-2.72044 m 105.568743,2.64583 -0.79375,2.91042 -9.26041,-0.48419 -21.96042,3.37105 -29.36875,-0.50165 -24.87083,-0.26855 c -0.0675,-0.85407 -0.64214,-2.531 0.15954,-3.16759 0.82868,-0.65802 2.54582,-0.17965 3.54463,-0.39238 4.77572,-1.01811 10.6926,-0.34925 15.61041,-0.13388 16.32506,0.71491 32.87183,0.95938 49.2125,0.24395 5.92428,-0.25956 11.82767,-1.32398 17.72708,-1.57718 m -104.245827,2.11667 0.529167,1.85208 h -0.264583 l -0.264584,-1.85208 m 103.452077,3.175 c -0.0548,2.65615 -1.02314,8.97387 -3.54356,10.4677 -0.87075,0.51621 -2.10053,0.29528 -3.07102,0.38021 l 1.05833,-3.70417 c 0.74322,0.19209 1.83727,0.63209 2.57202,0.23363 2.31722,-1.25624 1.08796,-9.96182 -3.05197,-5.99837 -0.54557,0.52229 -0.9488,1.17661 -1.37213,1.79599 h -0.26458 c -0.34423,-1.18374 -2.1381,-2.3495 -3.24433,-1.19406 -0.744,0.77682 -1.09299,2.54185 -1.25359,3.57531 -1.88622,-1.36048 -3.84969,-4.56961 -4.49792,-0.26458 h -0.26458 c -1.06257,-1.55469 -3.33904,-3.77666 -3.70417,-0.52917 h -0.26458 c -2.16429,-3.157 -4.38097,-1.83012 -7.14375,-0.26458 l -1.32292,-1.85208 c 2.66383,-1.12025 6.62887,-0.95039 9.525,-1.35731 6.83869,-0.96124 12.88045,-2.58128 19.84375,-1.28852 m -101.33541,0 1.05833,1.32291 -1.05833,-1.32291 m 19.57917,3.43958 c -1.9312,-0.83397 -2.09947,-0.18865 -2.64584,1.5875 -0.81121,-0.85328 -1.21152,-1.20491 -2.38125,-0.79375 l -0.26458,-2.38125 c 1.71159,0.0736 4.61751,-0.2458 5.29167,1.5875 m -16.93334,-1.32292 -0.26458,0.26458 0.26458,-0.26458 m 51.59375,1.05833 -1.05833,2.38125 -2.73553,-1.69386 -3.05461,2.77416 -6.64528,-2.40321 h -0.26458 c -1.17978,-0.96229 -2.08942,-0.88001 -2.11667,0.79375 -1.5232,-0.53949 -2.13624,-0.87286 -3.175,0.52916 l -1.85605,-2.2561 -6.08145,-0.38973 6.35,-0.55271 20.6375,0.81729 m -30.95625,-0.79375 1.05834,0.52917 -1.05834,-0.52917 m 45.50833,1.32292 c -1.21893,0.0228 -1.56395,0.74718 -1.85208,1.85208 -1.82404,-0.36777 -3.98224,-3.38216 -5.29167,-0.79375 -1.87034,-0.42121 -3.43693,0.0328 -4.7625,-1.5875 3.00673,0 6.01504,-0.2577 8.99584,-0.26458 1.02605,-0.002 2.65086,-0.41725 2.91041,0.79375 m -42.59791,0.52917 c 1.66026,1.12342 2.45163,1.98702 2.91042,3.96875 -1.10729,-0.81492 -3.03134,-2.49608 -2.91042,-3.96875 m -3.70417,0.26458 c 1.20227,0.83106 1.80314,1.40838 1.85209,2.91042 -0.89694,-0.68792 -2.01745,-1.70339 -1.85209,-2.91042 m 10.05417,2.91042 c -1.03928,-0.58605 -1.43537,-1.48326 -1.5875,-2.64584 1.33535,0.40535 1.29302,1.4269 1.5875,2.64584 m 23.54791,-2.38125 2.64584,2.64583 c -1.14459,-0.3892 -2.67388,-1.3163 -2.64584,-2.64583 m 21.16667,0 h 0.26458 c 0.51568,1.36604 0.72655,3.64516 2.64584,2.91041 h 0.26458 l 2.64583,0.79375 1.05834,2.11667 -11.90625,-0.52917 0.52916,-2.11666 c 1.20439,0.45164 4.05871,1.69598 4.50374,-0.54451 0.18441,-0.92896 -0.38894,-1.68884 -0.006,-2.63049 m -13.49375,0.79375 -0.26458,0.26458 0.26458,-0.26458 m 5.29167,0.26458 0.79375,1.32292 -0.79375,-1.32292 m -5.82084,0.52917 v 0.79375 l -0.52916,-0.79375 h 0.52916 m -47.88958,0.26458 c 0.29554,0.88345 0.84058,1.7481 0,2.38125 v -2.38125 m 71.4375,0 c 0.89191,1.69307 2.37516,4.33493 4.64899,2.67494 0.6059,-0.44238 0.80275,-1.17502 1.43643,-1.61661 l 0.52916,2.64584 -7.40833,0.26458 0.79375,-3.96875 m -48.68333,0.52917 c 1.25677,1.0451 3.2594,4.08464 4.23333,1.32291 1.42161,0.3982 3.49012,2.97022 4.23333,0.52917 l 2.38125,1.05833 v 0.26459 l -18.25624,0.79375 0.52916,-1.85209 c 1.76795,1.00595 2.79612,0.50113 2.91042,-1.5875 2.66938,1.24302 3.48774,3.14802 3.96875,-0.52916 m 11.90625,0 -1.05834,1.05833 1.05834,-1.05833 m 15.61041,0 3.96875,2.64583 -4.7625,-0.52917 0.79375,-2.11666 m -39.42291,0.79375 3.43958,2.64583 v 0.26458 l -4.23333,-0.52916 0.79375,-2.38125 m 35.98333,1.32291 h -1.5875 c 0.52308,-0.71887 1.06442,-0.71887 1.5875,0 m -41.80416,-0.52916 0.52916,1.5875 -3.43958,0.52916 v -1.85208 l 2.91042,-0.26458 m 2.64583,0 0.79375,1.32291 h -1.05833 l 0.26458,-1.32291 m 31.48541,0.79375 -3.96875,0.52916 0.79375,-1.32291 3.175,0.79375 m 2.11667,-0.79375 0.79375,0.26458 v 0.26458 z"
       id="path1221" />
  </g>
</svg>
