<?xml version="1.0" encoding="UTF-8" standalone="no"?>
<!-- Created with Inkscape (http://www.inkscape.org/) -->

<svg
   width="112.44791mm"
   height="112.44791mm"
   viewBox="0 0 112.44791 112.44791"
   version="1.1"
   id="svg988"
   xmlns="http://www.w3.org/2000/svg"
   xmlns:svg="http://www.w3.org/2000/svg">
  <defs
     id="defs985" />
  <g
     id="layer1"
     transform="translate(-48.904617,-92.276047)">
    <path
       style="fill:#010101;stroke:none;stroke-width:0.264583"
       d="m 105.26086,101.80105 h -0.26458 c -1.13982,-1.36819 -2.26377,-0.98862 -3.70417,-0.26459 -0.88318,-1.43835 -2.084119,-0.56803 -3.439579,-0.47709 -2.426229,0.16272 -6.738937,-1.590202 -8.466666,0.47709 h -0.264584 c -1.76477,-1.801889 -6.809581,-1.01806 -6.879166,1.85209 -1.927754,0.55448 -1.479814,1.88439 -1.992312,3.43958 -1.170252,3.55097 -1.687513,11.73379 3.579812,11.90625 -1.662377,7.18264 -8.006556,13.75674 -14.022916,17.5469 -2.120873,1.33588 -4.292547,2.3704 -6.614583,3.30226 -0.907944,0.36434 -2.286952,0.70803 -2.712799,1.69678 -0.639524,1.48457 1.021159,3.53033 1.769824,4.70614 2.754709,4.3262 7.084113,6.67703 12.055474,4.7625 l 2.38125,15.08125 c -1.823111,0 -5.032057,0.48048 -6.085416,-1.32292 1.050158,0 3.211671,0.4109 4.073684,-0.27199 1.052089,-0.83317 0.411823,-7.58825 -0.529167,-8.43544 -1.71278,-1.54253 -4.197773,-0.0114 -5.661183,-2.14048 l -1.058334,1.32291 c -1.234413,2.7e-4 -3.937502,-0.27728 -4.863544,0.68871 -0.879263,0.91731 0.404231,7.30171 1.308603,8.14758 0.991552,0.9271 3.847835,0.68792 5.142441,0.68871 v 0.26459 c -3.006143,1.02182 -5.43052,4.11347 -8.466666,5.4737 -0.989647,0.44317 -2.493433,0.59954 -2.56069,1.93966 -0.163804,3.26337 2.069412,7.11649 2.719519,10.31372 0.178779,0.87921 0.672148,3.13028 1.693254,1.5875 l 16.933333,4.58867 6.851385,2.64848 2.870993,-3.79757 6.197335,-7.67291 -0.309298,-3.175 11.641666,-0.22225 5.55625,1.54516 c -0.1352,1.06416 -0.61595,2.38363 -0.313,3.43959 0.65696,2.28864 2.96862,4.241 4.07405,6.34999 0.56409,1.07633 1.05675,3.46261 2.35215,3.8825 1.09722,0.35534 3.49514,-0.80724 4.73472,-0.9271 3.77242,-0.36512 7.85389,-0.30956 11.64166,-0.30956 3.10647,0 6.16823,-0.0291 9.26042,-0.24077 1.03055,-0.0707 2.69584,0.31935 3.58934,-0.29581 0.86174,-0.59293 0.71199,-2.24816 0.94958,-3.16759 0.6223,-2.40638 1.39912,-4.72069 2.64557,-6.87916 0.41963,-0.72682 1.53882,-1.94575 1.17449,-2.84639 -0.35692,-0.88265 -2.76516,-1.29487 -3.59648,-1.76371 -2.70034,-1.52348 -5.59038,-3.12791 -7.40834,-5.70865 3.28534,0.0587 3.96293,-1.19539 4.93607,-4.23334 0.23098,-0.72125 0.82524,-2.01004 0.33787,-2.72468 -0.79189,-1.16099 -3.97298,-1.61448 -5.27394,-2.03782 0.78952,-2.70113 -1.62851,-2.7088 -1.85208,0 l -3.175,-0.52916 1.32292,-6.35 c 4.05262,2.03385 11.50435,-0.79217 9.32868,-6.34603 -0.93451,-2.38549 -4.85034,-4.83712 -6.56696,-6.88314 -4.01902,-4.79028 -7.20064,-10.4013 -9.64089,-16.13958 -1.08664,-2.55508 -2.32251,-5.11281 -2.38125,-7.9375 h 0.26459 c 0.90857,3.46869 5.2525,1.82798 3.175,-1.32292 2.31775,-0.12832 2.69583,-2.49925 0.79375,-3.70416 2.73235,-3.79852 -2.04338,-9.33948 -5.12631,-11.06247 -1.32529,-0.740702 -3.7248,0.80169 -5.19244,0.89051 -1.6981,0.10279 -3.57214,-0.58992 -5.29167,-0.65757 -1.93172,-0.076 -3.82429,0.37364 -5.70865,0.41992 -1.80578,0.0444 -4.51988,-0.43942 -5.93302,0.88461 m 21.69584,-0.26459 c -0.32227,1.93387 -1.93384,0.32234 0,0 m -13.22917,0.26459 c -0.32253,1.06132 -1.16364,1.52741 -1.5875,0.26458 l 1.5875,-0.26458 m 3.43958,0 -1.32291,1.05833 v -1.05833 h 1.32291 m -29.104162,0.26458 -1.5875,0.79375 1.5875,-0.79375 m 3.175,0.26458 -1.058333,0.79375 0.264583,-1.05833 0.79375,0.26458 m 2.910416,0.79375 -1.322916,-0.26458 v -0.52917 c 0.829998,-0.13081 1.058333,-0.009 1.322916,0.79375 m 6.349996,0 c -2.310867,0.38915 -0.638965,-1.92267 0,0 m 3.175,-1.05833 v 1.32292 l -1.32291,-0.26459 1.32291,-1.05833 m 6.61459,0.26458 v 0.52917 l -1.32292,0.26458 c 0.26458,-0.80325 0.49292,-0.92456 1.32292,-0.79375 m 13.75833,-0.26458 c -0.22834,0.80507 -0.6096,0.99608 -1.32292,0.52917 l 1.32292,-0.52917 m -39.422915,0.26458 -1.058333,1.05834 v -1.05834 h 1.058333 m 12.435416,0 v 0.79375 h -1.058333 v -0.79375 h 1.058333 m 10.054169,0.26459 v 0.52916 h -1.32292 l 1.32292,-0.52916 m 12.17083,-0.26459 1.5875,0.26459 v 0.26458 l -1.5875,-0.52917 m 10.05417,0.52917 0.26458,0.79375 h -0.79375 l 0.52917,-0.79375 m 1.05833,11.90625 c -10.45766,3.09113 -22.02577,2.83395 -32.808333,1.80716 -4.605072,-0.43852 -9.422076,-1.5299 -14.022915,-1.54258 l 0.376766,-7.40833 0.613304,-2.3739 2.714096,-0.27093 7.14375,0.51774 24.077082,-0.26459 6.08542,-0.29908 3.03926,0.0523 1.06839,2.63848 1.71318,7.14375 m -47.889582,-9.78958 -0.79375,0.52916 0.79375,-0.52916 m 48.418752,0.52916 v 1.32292 l -1.05834,-0.26458 v -0.52917 l 1.05834,-0.52917 m -8.73125,3.70417 1.85208,-0.52917 0.26458,4.7625 c 2.29632,-1.26621 -0.0532,-4.17909 2.91042,-5.29166 v -0.52917 c -1.54808,-0.45757 -5.59964,-0.94993 -5.02708,1.5875 m -34.131252,3.96875 c 2.65e-4,-1.58951 0.03413,-2.68581 1.058333,-3.96875 v 2.11667 l 2.645833,-2.11667 v 4.49792 c 1.54358,-0.50737 1.907382,-3.89763 1.010973,-5.17592 -0.425714,-0.60698 -3.21601,-0.85579 -3.91742,-0.67534 -2.071952,0.533 -3.121819,4.58798 -0.797719,5.32209 M 120.6067,112.1198 h -3.96875 v -0.79375 l 1.85208,-0.26459 c -0.32359,-0.97544 -0.87524,-1.02647 -1.85208,-1.05833 0.75618,-1.29458 2.15,-0.94157 3.43958,-1.32292 -0.71834,-1.30273 -3.25279,-1.50106 -4.33837,-0.3734 -0.70644,0.73398 -0.63474,3.15679 -0.26459,4.04878 0.74666,1.79872 4.58417,1.49866 5.13213,-0.23579 m -38.629168,-4.23334 v 0.52917 h -0.79375 v -0.52917 h 0.79375 m 26.193748,5.82084 c 1.48908,-0.26099 1.14326,-1.94752 1.5875,-3.175 h 0.52917 c 0.32782,1.41583 0.68024,3.36314 2.38125,3.43958 l -1.32292,-4.23333 c 1.10781,-0.0914 2.00739,-0.18577 2.38125,-1.32292 -1.66053,-0.32295 -3.02075,0.35676 -4.49792,1.05833 0.28046,-1.23132 -0.78369,-1.93026 -1.20808,-0.51345 -0.44689,1.49156 0.11853,3.2299 0.14975,4.74679 m -14.022916,0.52916 h 1.058334 c 0.356922,-1.69928 0.883708,-2.40162 2.645833,-2.64583 0.05106,4.32525 2.385749,-0.65807 0.974196,-2.82631 -0.666221,-1.02343 -2.059517,-0.43312 -2.739232,0.24091 -1.414991,1.40311 -1.933574,3.3138 -1.939131,5.23123 m 7.672916,0 v -2.64583 c 1.48246,0.78743 2.11349,2.79096 3.96875,2.38125 -0.38947,-0.87498 -1.26894,-1.69736 -1.43298,-2.64583 -0.14791,-0.85495 0.58658,-1.7139 0.0587,-2.53109 -0.56515,-0.87426 -3.02207,-0.97679 -3.71051,-0.21968 -1.011769,1.11215 -0.28125,5.19896 1.11601,5.66118 m 30.1625,-5.82083 c -0.0317,0.97674 -0.0828,1.5286 -1.05833,1.85208 l 0.52916,-1.85208 h 0.52917 m -28.575,1.05833 -1.5875,0.79375 v -1.05833 l 1.5875,0.26458 m -5.556249,0 -0.79375,0.79375 0.264583,-0.79375 h 0.529167 m -16.139583,0.52917 0.264584,0.79375 h -1.058334 l 0.79375,-0.79375 m 50.535412,2.64583 0.26459,1.05834 -0.26459,-1.05834 m -50.535412,0.26459 -0.529166,0.52916 v -0.52916 h 0.529166 m 0.529167,2.11666 -1.322917,0.52917 v -0.26458 l 1.322917,-0.26459 m 48.947915,1.32292 -1.32292,0.52917 1.32292,-0.52917 m -47.095832,0.26458 -1.058333,0.79375 1.058333,-0.79375 m 51.593752,29.36875 3.96874,-0.26458 c -1.14247,-2.07195 -3.81185,-0.13282 -5.28108,-1.67164 -4.4278,-4.63762 -8.07482,-12.14358 -10.06448,-18.17211 -0.48525,-1.47003 -0.69242,-3.04006 -1.19962,-4.49263 -0.13097,-0.37518 -0.69242,-1.45944 -1.22291,-0.86465 -0.7411,0.83052 1.03161,5.14482 1.36419,6.15103 1.40415,4.25026 3.7465,8.37565 6.10209,12.17083 1.19248,1.92114 2.88396,3.70179 3.68723,5.82083 -13.55513,1.1311 -27.3894,0.52917 -41.010412,0.52917 2.515923,-6.9133 6.338887,-13.96285 4.497916,-21.69583 -1.682485,1.4015 -0.915723,3.85074 -1.103312,5.82083 -0.303213,3.1877 -0.642938,6.48864 -1.7272,9.525 -0.766498,2.1463 -2.478881,4.064 -2.725737,6.35 -4.755092,-1.13215 -9.748044,-1.15411 -14.552083,-2.35347 -3.048873,-0.7612 -7.198095,-2.59688 -10.318749,-1.87986 v 0.52916 c 13.326532,4.96729 27.550531,5.02709 41.539577,5.02709 8.93287,0 18.11655,0.31379 26.9875,-0.52917 -0.008,1.36234 0.1786,2.98397 -0.44661,4.23333 -1.7952,3.58749 -6.66962,4.11216 -9.5684,1.60682 -0.84402,-0.72946 -0.37412,-4.44447 -0.82338,-4.35028 -1.27106,0.2667 -1.13586,2.86173 -1.5277,3.75655 -0.58367,1.33218 -2.43549,2.3622 -3.77349,2.74691 -1.74043,0.50006 -3.78778,0.29686 -5.29167,-0.70882 -1.0152,-0.67892 -2.13095,-2.12249 -3.43958,-2.13757 -1.44383,-0.0167 -2.79082,1.55628 -3.96875,2.23361 -1.7743,1.02024 -4.70482,1.23772 -6.614583,0.46355 -1.486429,-0.60245 -3.662891,-1.76397 -4.490243,-3.19484 -0.309298,-0.53446 0.106627,-2.42729 -0.544248,-2.59027 -0.448998,-0.11219 -0.747977,0.54451 -0.865187,0.86069 -0.591344,1.59491 -0.549805,2.31854 -2.302404,3.07631 -4.614334,1.99522 -11.852539,1.05039 -14.544675,-3.69015 -0.486304,-0.85619 -0.308239,-2.13995 -0.536575,-3.09959 -1.618271,1.34805 -0.797824,3.38085 -2.910628,4.54978 -4.952047,2.74002 -10.178467,-3.91531 -11.376871,-7.98936 6.768147,-3.60442 13.009006,-6.17829 17.990608,-12.43542 1.863724,-2.34077 3.597803,-5.19006 4.796366,-7.9375 0.517525,-1.18613 0.648229,-3.53912 1.878806,-4.21558 1.941512,-1.06756 6.761691,0.31396 8.936302,0.48874 7.085802,0.56957 14.581452,1.44904 21.695832,0.7715 2.30135,-0.21913 4.61618,-0.54565 6.87917,-1.01423 0.75326,-0.15597 2.04787,-0.72599 2.76119,-0.24601 0.98107,0.66024 1.25703,3.63562 1.68672,4.74475 1.5404,3.97642 3.3438,7.7388 5.55254,11.37708 2.48153,4.08728 5.19324,7.92718 8.5307,11.37603 1.61819,1.6719 4.11665,2.81543 3.25649,5.5573 -1.24434,3.96717 -6.5913,3.46896 -8.73204,0.79349 -1.15729,-1.44621 -0.82842,-3.29777 -1.14935,-5.02682 m -23.54792,-4.23333 1.32292,-0.26459 c -1.07289,-5.198 -4.10475,-9.94145 -4.23334,-15.34583 -0.0135,-0.56303 -0.0653,-4.34737 -1.17872,-3.83725 -0.91863,0.42069 -0.17145,3.80021 -0.13387,4.631 0.23653,5.19933 3.07048,9.83456 4.22301,14.81667 m -40.216664,-1.5875 c 1.686956,0.0971 3.215825,-1.11575 4.497651,-2.12064 3.389842,-2.658 5.735638,-6.89425 8.301037,-10.31478 0.586582,-0.78211 3.723217,-3.79306 3.406775,-4.70191 -0.35851,-1.03002 -1.662377,0.11298 -2.019829,0.49742 -1.645443,1.76927 -3.02895,3.83222 -4.433093,5.79199 -1.214438,1.69492 -2.429933,3.39037 -3.722952,5.02708 -1.5494,1.96163 -5.369877,3.52558 -6.029589,5.82084 M 113.3465,123.01428 c -0.87815,0.57679 0.082,3.41868 0.34449,4.18676 1.44489,4.22831 2.60905,8.78285 4.7998,12.7 0.32941,0.58897 2.02724,4.77997 2.96148,3.946 0.86043,-0.76835 -1.30783,-3.94626 -1.70471,-4.73975 -2.00633,-4.01267 -3.67956,-8.34654 -4.79504,-12.7 -0.13414,-0.52334 -0.58208,-4.06532 -1.60602,-3.39301 m -32.956498,19.26801 c 0.784489,2.33813 3.121818,-0.89799 3.77137,-1.85208 2.437342,-3.58008 4.387586,-7.75652 5.601229,-11.90625 0.230188,-0.78608 1.778265,-4.38282 0.585259,-4.82811 -1.062567,-0.39688 -1.7018,3.85418 -1.933046,4.56353 -1.502304,4.60957 -3.947583,11.12679 -8.024812,14.02291 m 21.431248,-18.25624 c 0.41672,5.23504 0.79375,10.32906 0.79375,15.61041 0,1.56845 -0.67548,4.42886 1.32292,4.7625 0,-5.12074 -0.26459,-10.24387 -0.26459,-15.34583 0,-1.74705 0.44053,-4.84426 -1.85208,-5.02708 m 7.40833,26.45833 c 2.69928,-0.45059 0.17833,-3.996 0.005,-1.06892 -0.0209,0.35295 -0.005,0.7157 -0.005,1.06892 m -33.602078,-0.79375 c 5.162021,2.98053 2.475177,6.11902 3.139546,10.58333 0.162189,1.09114 -0.09763,3.84519 0.913341,4.4868 1.046692,0.66411 3.932767,0.0111 5.207529,0.0111 -0.645583,1.83568 -4.927864,1.00965 -6.614583,1.32291 l -0.970756,-9.26041 -1.675077,-7.14375 m 59.266668,10.05416 c -3.09007,0.23363 -2.38125,5.32501 -2.38125,7.67292 l -5.02709,0.26458 v -2.64583 c 5.74384,-0.45403 4.07591,-6.58178 5.36522,-10.8376 0.3347,-1.10543 1.43008,-1.94865 2.04312,-2.92073 2.63128,1.26841 0.44132,6.09044 0,8.46666 m -40.216669,15.61042 c -0.110067,-2.56567 -0.271463,-5.0927 -0.264319,-7.67292 0.0021,-0.78846 0.265113,-2.1463 -0.592402,-2.59344 -1.941777,-1.01309 -6.226439,1.68989 -7.609945,-0.31697 1.398852,0 2.943754,0.32067 3.704166,-1.05834 6.430698,-0.004 1.856052,-8.06582 3.704167,-11.90625 4.914635,2.25134 2.910416,13.12254 2.910416,17.72709 0,2.06401 0.928688,5.72955 -1.852083,5.82083 m 13.758329,0 -10.583329,-0.52917 -0.264584,-20.37291 c 2.520683,1.03399 5.022853,1.52267 7.672913,0.49794 1.26233,-0.48815 3.37397,-2.77653 4.72335,-2.4167 1.44515,0.38523 0.8329,4.23042 0.8329,5.35834 -2.6e-4,5.74992 -1.33297,11.81894 -2.38125,17.4625 m 15.08125,-23.01875 0.26459,0.26458 -2.64584,5.02709 -1.05833,2.64583 h -4.7625 l 0.52917,-4.7625 c 3.31311,-0.009 4.94797,-1.60734 7.67291,-3.175 m -31.485412,0.79375 c -0.171186,2.658 1.495425,9.21755 -2.116667,9.26042 l -0.675481,-5.1189 -4.042039,-0.59584 -1.752071,-0.83264 -0.144992,1.25571 h -2.645833 l -0.264583,-3.70417 c 4.220104,0.87048 7.46072,0.69401 11.641666,-0.26458 M 124.84,153.39477 c 2.25187,1.41632 4.08252,1.2581 6.61458,1.05834 -0.63129,3.38799 0.21061,9.16807 -4.23333,9.26041 -0.003,-1.24222 0.0955,-2.46909 -1.05833,-3.175 0.66833,-1.2954 1.71873,-2.26166 2.5601,-3.43932 0.16325,-0.2286 0.89826,-1.26709 0.25453,-1.42081 -1.27555,-0.30453 -3.28639,3.7346 -4.41245,4.32356 -1.5031,0.78634 -3.60601,0.18521 -3.08055,-1.7997 0.39423,-1.48934 2.33019,-3.63167 3.35545,-4.80748 m -1.32292,3.96875 1.5875,-1.05833 c -1.1041,2.78791 2.46116,0.86042 1.5875,-1.32292 h -0.26458 l -1.32292,1.32292 c 1.62693,-3.01149 -2.13307,-1.38906 -1.5875,1.05833 m -9.525,2.91042 c -2.11534,0.77761 -1.02764,3.30412 -0.77364,5.02708 0.49689,3.37397 -0.92895,7.63059 -1.07844,11.1125 h -2.11667 L 112.14,154.45311 c 3.30121,0.58922 2.17038,3.30411 1.85208,5.82083 m 3.175,-1.32292 c 1.68937,-0.0722 2.95169,-1.8034 2.64584,-3.43958 -1.47426,0.54584 -2.35374,1.92987 -2.64584,3.43958 m -43.127078,4.23334 c -2.343705,0 -6.810189,0.87444 -8.911722,-0.15955 -0.812138,-0.39978 -1.674918,-5.51259 -1.12469,-6.25872 0.430424,-0.5834 1.471533,-0.45746 2.098913,-0.46064 1.644994,-0.009 5.69759,-0.69717 6.895491,0.68475 1.10781,1.27793 0.738822,4.56115 1.042008,6.19416 m 53.445828,-3.43959 c 3.28189,0.46382 3.37079,-4.89082 0.644,-1.32821 -0.32623,0.42625 -0.4744,0.82974 -0.644,1.32821 m -39.158329,-1.5875 0.264584,5.29167 -8.202083,0.26458 -0.529167,-5.29166 8.466666,-0.26459 m 11.701989,2.92286 c -1.662904,0.93503 -0.279398,3.94096 1.41235,2.84665 1.35784,-0.87842 0.20479,-3.75629 -1.41235,-2.84665 m 45.18342,2.10423 c -0.23944,5.22763 -3.09033,5.21837 -7.40833,4.80748 -0.94747,-0.0902 -3.03292,0.36882 -3.69676,-0.46911 -1.00118,-1.26418 -0.007,-4.90326 -0.007,-6.45504 l 11.11249,2.11667 m -19.04999,4.23333 h -11.37709 l -0.79375,-5.82083 h 8.46667 l 3.16759,0.42412 0.53658,5.39671 m -56.356251,0.79375 c -1.186286,0.45058 -1.766385,0.65881 -2.910416,0 1.052644,-1.45812 2.827575,-2.52227 2.910416,0 m 22.489582,-1.85208 -1.852083,3.175 -3.439583,-0.79375 c -0.501121,-2.87179 3.1496,-2.37543 5.291666,-2.38125 m -14.816666,0.79375 -6.614583,7.14375 c -2.958676,-0.39847 -7.505884,-1.08929 -10.054166,-2.64584 l 3.96875,-1.85208 -0.529167,1.5875 c 1.113288,0.0132 1.775222,0.0704 2.38125,1.05833 l 4.497917,0.26459 c -0.623597,-2.19552 -2.135373,-1.78039 -3.704167,-0.79375 l -1.322916,-2.38125 c 1.693492,0.51011 2.270707,1.329 3.704166,-0.26459 h 0.264583 l 1.322917,0.79375 -0.264583,-3.175 6.349999,0.26459 m 7.9375,-0.26459 0.264583,1.5875 c -2.130689,0.20479 -4.143639,0.29395 -6.085416,-0.79375 l 5.820833,-0.79375 m -13.758333,3.175 c 0.96602,0.14711 1.215179,-0.1815 1.5875,-1.05833 h 0.529167 c 0.553058,0.96255 1.63486,0.67548 1.15816,-0.47281 -1.002241,-2.41485 -3.02551,0.27199 -3.274827,1.53114 m 21.431249,-2.11666 0.376767,7.40833 0.375179,4.23333 -3.109383,3.70417 -4.521729,6.61458 -6.085417,-2.36723 -11.377082,-3.45069 -6.419215,-1.48537 -0.91522,-2.75087 -1.925981,-6.87917 c 8.78406,1.13427 17.205853,4.7625 26.193748,4.7625 -0.601662,2.5273 -0.763058,5.60017 -0.792691,8.20208 -0.0042,0.35878 -0.111125,3.0099 0.836347,2.37146 0.710142,-0.47863 0.471488,-1.91823 0.48948,-2.63604 0.06112,-2.45057 0.339989,-4.96438 0.550068,-7.40833 0.269875,-3.13849 4.022196,-8.27326 6.325129,-10.31875 m 27.781249,1.05833 -0.26458,1.32292 c -2.37543,-0.43419 -3.21443,0.49265 -3.96875,2.64583 h -0.26459 l -1.85208,-4.23333 6.35,0.26458 m 7.14375,0 -0.26458,0.79375 c -2.15795,-0.77893 -3.54304,0.84614 -5.55625,1.5875 v -2.38125 h 5.82083 m 9.525,0.52917 -0.52917,1.32291 c -1.25915,-0.46725 -6.65718,-0.65114 -5.19721,2.26298 0.19473,0.38868 2.45269,0.68369 3.08055,1.17661 0.26722,-1.29593 -0.063,-1.93861 -1.32292,-2.38125 v -0.26459 c 5.6896,-0.93504 0.96732,3.75576 -0.26458,5.55625 1.42319,0.22649 2.96677,0.15002 2.91041,-1.5875 l 3.98992,0.92657 2.36114,-1.09193 1.98146,0.42545 -0.43153,-1.28508 -2.87391,-0.29792 c 0.44159,-1.98359 -1.28878,-2.3667 -2.91041,-2.38125 0.0913,-1.10781 0.18574,-2.0074 1.32291,-2.38125 1.84309,3.18822 5.65891,5.706 8.99584,7.14375 v 0.26458 c -9.57025,1.20941 -18.97486,1.05833 -28.575,1.05833 l -2.64583,-4.23333 h 2.38125 l -1.5875,-1.5875 c 0.56356,-0.86942 2.02988,-1.03293 2.28414,0.28019 0.30692,1.58539 -2.15582,4.05818 1.14353,3.65046 0.36592,-0.045 0.71279,-0.1405 1.07024,-0.22648 l -1.5875,-1.05834 c 0.75565,-1.16893 1.45706,-0.29977 2.11667,0.52917 v 0.26458 l -0.79375,1.32292 4.7625,-0.52917 c -0.0743,-1.6502 -1.56872,-1.58353 -2.91042,-1.5875 v -0.26458 l 3.96875,-0.26458 -2.64583,-1.32292 0.26458,-2.38125 h 0.52917 l 1.5875,0.79375 c 0.0823,1.79573 0.90778,4.16322 2.21985,5.452 0.77232,0.7583 2.39237,1.24619 2.76331,-0.17595 0.30586,-1.17316 -0.83423,-2.13465 -1.53696,-2.8948 -1.32609,-1.43537 -2.03888,-3.04615 -2.91703,-4.7625 2.92364,-0.23072 6.14732,-0.31274 8.99583,0.52917 m -56.885415,0.52916 -1.322916,-0.26458 1.322916,0.26458 m 2.910417,1.05834 -2.38125,-0.52917 c 0.977635,-0.98266 1.749954,-0.59531 2.38125,0.52917 m 2.645833,-0.26459 -2.116667,0.52917 0.529167,-1.5875 1.5875,1.05833 m -13.229166,3.96875 v -0.26458 c 1.469337,-0.0804 2.12254,-0.64241 2.910416,-1.85208 h 0.264584 l 0.264583,1.5875 5.011208,-0.28972 -3.952875,-2.09153 c 1.906852,-0.11933 4.015317,-0.91414 4.233333,1.85208 h 0.79375 l 0.264584,1.85208 h 0.529166 l 0.529167,-1.32291 2.116666,0.52916 c -0.176477,-1.91955 -0.676539,-2.89719 1.852084,-2.11666 0.03148,-0.48604 -0.345017,-3.43747 0.964935,-2.44687 1.139825,0.86175 -2.159794,5.5409 -3.16865,5.99149 -1.168929,0.52176 -2.944812,0.0722 -4.146285,-0.12621 -2.79056,-0.46117 -5.651235,-1.07765 -8.466666,-1.30175 m 41.010411,-3.70416 5.08847,7.9375 -0.85513,10.05416 h -0.26459 c -1.25201,-2.64213 -3.52372,-4.9911 -4.53945,-7.67291 -0.80778,-2.13334 -0.30401,-8.23437 0.5707,-10.31875 m 11.37709,1.85208 h -2.64584 c 0.89906,-0.99139 1.73593,-0.97314 2.64584,0 m -41.275002,-0.26458 v 0.26458 l -1.322916,0.26458 0.264583,-0.79375 1.058333,0.26459 m 38.364582,-0.26459 -0.26458,0.26459 0.26458,-0.26459 m 18.52083,1.85209 v 0.26458 l -0.79375,0.79375 h -0.26458 l -2.11667,-1.05833 c 0.82524,-1.49649 2.15265,-1.06178 3.175,0 m 9.525,3.70416 c -1.64915,3.53245 -3.38799,6.87361 -3.70417,10.84792 l -27.25208,1.05833 1.05834,-10.58333 z"
       id="path1061" />
  </g>
</svg>
