<?xml version="1.0" encoding="UTF-8" standalone="no"?>
<!-- Created with Inkscape (http://www.inkscape.org/) -->

<svg
   width="161.925mm"
   height="161.925mm"
   viewBox="0 0 161.925 161.925"
   version="1.1"
   id="svg1345"
   xmlns="http://www.w3.org/2000/svg"
   xmlns:svg="http://www.w3.org/2000/svg">
  <defs
     id="defs1342" />
  <g
     id="layer1"
     transform="translate(23.448215,-119.39464)">
    <path
       style="fill:#000000;stroke-width:0.264583"
       d="m 5.4802234,280.90498 c -0.087516,-0.22806 -0.054012,-0.51262 0.074451,-0.63235 0.3951261,-0.36828 8.9095636,-1.56026 15.1965686,-2.12745 5.896107,-0.53192 7.784669,-0.79385 13.215125,-1.83285 1.527969,-0.29235 4.385469,-0.78774 6.35,-1.10088 7.0836,-1.12911 16.91508,-2.89072 22.637266,-4.05616 3.209922,-0.65377 9.75836,-1.83859 14.552083,-2.63294 8.191326,-1.35734 10.350379,-1.64909 19.960651,-2.69724 3.581222,-0.39059 6.781582,-0.86209 12.567712,-1.85156 2.2298,-0.38131 5.1134,-1.0237 10.00042,-2.22782 2.48663,-0.61269 3.205,-0.47504 2.58997,0.49626 -0.26862,0.42423 -6.34981,1.79029 -12.4581,2.79856 -2.25557,0.37231 -5.05354,0.84698 -6.21771,1.05481 -1.16417,0.20784 -3.9026,0.57338 -6.085417,0.81233 -5.957967,0.65219 -15.84452,1.92364 -18.388541,2.36483 -1.236927,0.21451 -3.439584,0.58064 -4.894792,0.81362 -3.535426,0.56603 -13.080656,2.39866 -16.536458,3.1749 -2.833937,0.63656 -10.935523,2.03636 -17.594792,3.04005 -2.037292,0.30706 -5.073385,0.84299 -6.746875,1.19096 -4.189666,0.87115 -6.112404,1.15624 -10.715625,1.5888 -7.534637,0.70803 -9.010168,0.88736 -12.832292,1.55958 -4.535609,0.7977 -4.4704712,0.79401 -4.6736446,0.26455 z m -3.7930217,-3.00709 c 0,-0.61427 0.1344146,-0.66056 3.8364583,-1.32129 1.6007292,-0.28569 3.9013421,-0.70345 5.112472,-0.92836 1.211131,-0.22491 4.187693,-0.52781 6.614584,-0.67312 4.484849,-0.26854 8.531529,-0.79267 11.159402,-1.44539 1.564323,-0.38855 4.565672,-0.88806 10.451042,-1.73937 2.037292,-0.29469 3.88276,-0.5905 4.101042,-0.65734 0.218281,-0.0668 3.135312,-0.60184 6.482291,-1.18889 3.346979,-0.58705 7.335573,-1.3049 8.863542,-1.59522 5.250521,-0.99763 19.455638,-3.02926 23.151042,-3.31109 3.484295,-0.26573 10.667082,-1.18432 13.49375,-1.72569 1.455208,-0.2787 5.053613,-0.86205 7.996453,-1.29633 2.94284,-0.43428 6.15753,-0.97763 7.14375,-1.20744 3.91316,-0.91186 12.71861,-2.72285 14.01047,-2.88149 0.89109,-0.10942 1.43293,-0.0654 1.55122,0.12598 0.43628,0.70592 -0.43039,0.98707 -6.49252,2.10623 -5.32702,0.98344 -6.75998,1.27759 -8.73125,1.79226 -2.31584,0.60463 -4.4486,0.97966 -7.9375,1.39573 -1.38245,0.16487 -4.001821,0.57727 -5.820832,0.91646 -1.81901,0.33918 -4.31596,0.75298 -5.548778,0.91955 -1.232818,0.16657 -2.30438,0.34102 -2.38125,0.38767 -0.07687,0.0466 -2.401951,0.28215 -5.166847,0.52335 -2.764895,0.24121 -6.396302,0.6666 -8.069791,0.94531 -1.67349,0.27872 -4.173802,0.63076 -5.55625,0.78231 -2.789111,0.30575 -9.485101,1.34512 -13.758334,2.13561 -1.527968,0.28265 -4.861718,0.87216 -7.408333,1.31003 -2.546615,0.43787 -5.463646,0.97816 -6.482292,1.20066 -1.018645,0.22249 -3.102239,0.5746 -4.630208,0.78247 -4.228761,0.5753 -7.36005,1.08919 -10.22939,1.67878 -3.731236,0.76669 -6.00837,1.0549 -10.804985,1.36755 -3.641712,0.23738 -7.1535819,0.75252 -12.6540392,1.85618 -1.8847435,0.37818 -2.2949191,0.33258 -2.2949191,-0.25511 z m -0.6144924,-3.29814 c -0.23920296,-0.62335 0.5017799,-0.85124 3.921784,-1.20614 1.6007292,-0.16611 4.2201042,-0.52757 5.8208337,-0.80325 6.731579,-1.1593 9.861817,-1.65434 15.875,-2.51061 3.4925,-0.49732 8.135937,-1.20166 10.31875,-1.56519 2.182812,-0.36353 6.111875,-0.9742 8.73125,-1.35704 4.809614,-0.70295 7.665571,-1.14994 19.446875,-3.04365 9.264208,-1.48912 11.134743,-1.77828 14.552083,-2.24956 1.67349,-0.23079 4.411927,-0.64648 6.085417,-0.92376 3.304309,-0.5475 7.110126,-1.11772 22.092708,-3.31014 5.38427,-0.78788 11.3903,-1.67609 13.34673,-1.9738 3.07425,-0.4678 3.60819,-0.49023 3.93317,-0.16525 0.32498,0.32498 0.29106,0.43141 -0.24985,0.78399 -0.58118,0.37883 -1.65897,0.5635 -7.24047,1.24056 -1.16416,0.14121 -3.24776,0.43115 -4.6302,0.6443 -1.38245,0.21315 -3.82323,0.57158 -5.42396,0.7965 -11.641054,1.63572 -16.620221,2.37296 -19.843753,2.93814 -2.037292,0.3572 -4.835261,0.76616 -6.217709,0.9088 -2.298242,0.23714 -4.830603,0.62309 -13.890625,2.11703 -3.167919,0.52237 -8.1891,1.32124 -14.948958,2.37839 -1.964531,0.30722 -4.941094,0.78188 -6.614583,1.05479 -1.67349,0.27291 -3.697552,0.57475 -4.497917,0.67075 -0.800365,0.096 -3.479271,0.51046 -5.953125,0.92104 -2.473854,0.41057 -6.224323,0.99289 -8.334375,1.29406 -8.375642,1.19542 -11.517357,1.67335 -11.691186,1.77852 -0.09999,0.0605 -1.171557,0.23308 -2.38125,0.38352 -1.209691,0.15043 -2.794752,0.4381 -3.5223557,0.63928 -0.7276041,0.20117 -2.0968229,0.43256 -3.0427083,0.5142 -0.9458854,0.0816 -2.5642067,0.22404 -3.5962696,0.31645 -1.6037975,0.14361 -1.9010127,0.10409 -2.0453061,-0.27193 z m -1.14628934,-2.68423 c -0.08617083,-0.22456 -0.08836766,-0.47659 -0.0048816,-0.56008 0.08348583,-0.0835 1.31858524,-0.30677 2.74466554,-0.49619 1.4260793,-0.18941 2.9752915,-0.53915 3.4426938,-0.77719 0.482682,-0.24582 2.0257955,-0.53482 3.571875,-0.66897 6.1347433,-0.53227 14.6498363,-1.77406 20.1166413,-2.93368 5.216559,-1.10654 11.502789,-2.10948 22.425205,-3.57785 1.527969,-0.20542 7.77875,-1.27771 13.890625,-2.38288 12.514016,-2.26282 19.563972,-3.34973 24.60625,-3.79359 1.891771,-0.16653 5.285052,-0.59943 7.540625,-0.96202 6.772401,-1.08865 14.937611,-2.09959 23.283331,-2.8827 5.18381,-0.48642 5.27538,-0.48603 5.47082,0.0233 0.2171,0.56576 -0.35696,0.89035 -1.58339,0.89528 -0.55406,0.002 -1.80421,0.11804 -2.77813,0.25734 -0.97392,0.13931 -3.3781,0.38138 -5.34263,0.53793 -5.04179,0.40177 -8.23767,0.80343 -19.050001,2.39418 -4.732076,0.6962 -7.234039,1.00674 -10.583333,1.31358 -4.705178,0.43105 -9.156359,1.07821 -13.626042,1.98109 -1.018646,0.20576 -4.947708,0.91746 -8.73125,1.58154 -3.783542,0.66408 -7.772136,1.37908 -8.863542,1.5889 -1.091406,0.20982 -3.230361,0.51433 -4.753231,0.6767 -1.522871,0.16236 -2.840496,0.33948 -2.928052,0.39359 -0.08756,0.0541 -2.413447,0.4051 -5.168643,0.77997 -6.270363,0.85314 -8.115284,1.16833 -13.807522,2.35887 -4.196501,0.87771 -12.407352,2.22767 -14.617552,2.4033 -3.76864,0.29947 -7.1987091,0.80689 -8.2170374,1.21557 -1.0898219,0.43738 -4.7290148,1.04234 -6.27026307,1.04234 -0.33580678,0 -0.68106105,-0.18373 -0.7672316,-0.40829 z m -0.8754327,-3.152 c -0.54001986,-0.65068 -0.0489418,-0.93763 1.60465029,-0.93763 0.87067175,0 2.44122445,-0.17298 3.49011475,-0.38441 1.0488904,-0.21143 3.9311369,-0.635 6.4049907,-0.94127 4.179666,-0.51747 5.996644,-0.95067 10.451042,-2.49175 1.250804,-0.43274 7.815786,-1.66194 13.60892,-2.54808 1.882355,-0.28793 3.487505,-0.58855 3.567002,-0.66805 0.232079,-0.23208 -9.871972,0.20198 -10.171369,0.43696 -0.458743,0.36002 -9.631707,2.11657 -12.29622,2.35462 -1.382448,0.12351 -2.811198,0.33978 -3.175,0.48061 -0.363802,0.14082 -1.316302,0.33634 -2.116666,0.4345 -0.8003649,0.0982 -2.3481774,0.35064 -3.4395837,0.56108 -3.974593,0.76637 -6.8586519,1.16955 -7.26115141,1.0151 -0.57023768,-0.21882 -0.5152906,-0.82112 0.10520547,-1.1532 0.28433369,-0.15217 1.26659934,-0.34124 2.18281254,-0.42016 1.7668729,-0.15219 6.3812512,-0.8563 11.1908421,-1.70761 1.600729,-0.28334 4.193849,-0.71293 5.762492,-0.95464 1.568641,-0.24172 2.903633,-0.52291 2.966646,-0.62487 0.06302,-0.10196 -1.969772,-0.26077 -4.517302,-0.3529 -4.610587,-0.16676 -6.178302,-0.0155 -9.106628,0.87841 -0.8769218,0.26771 -8.23334941,1.31459 -9.912291,1.4106 -1.0073751,0.0576 -1.2639955,-0.75283 -0.3591528,-1.13425 0.3377837,-0.14239 2.45962088,-0.43644 4.7151938,-0.65344 2.2555729,-0.217 4.7558854,-0.59395 5.55625,-0.83768 l 1.4552083,-0.44314 -1.3956718,-0.47997 c -1.2994534,-0.44689 -1.5912967,-0.45349 -4.2333333,-0.0958 -1.5607133,0.21131 -3.31391153,0.49989 -3.89599487,0.64128 -1.67638203,0.4072 -2.24895833,0.34374 -2.24895833,-0.24927 0,-0.60379 1.0148925,-0.93817 3.7041667,-1.22043 2.5165261,-0.26414 2.7093386,-0.48108 0.9969751,-1.12176 -1.3584039,-0.50824 -1.5640164,-0.5203 -2.88348579,-0.16911 -1.96449421,0.52287 -2.67247901,0.50115 -2.56185141,-0.0786 0.054037,-0.28317 0.4726456,-0.55822 1.0777339,-0.70812 0.544158,-0.13481 0.98937817,-0.34074 0.98937817,-0.45764 0,-0.1169 -0.50601567,-0.46569 -1.12447917,-0.77509 -0.6184635,-0.3094 -2.2853385,-1.33702 -3.7041667,-2.28361 -2.1559038,-1.43833 -2.5796875,-1.83361 -2.5796875,-2.40616 0,-0.3768 0.5871181,-2.17934 1.304707,-4.00562 0.7175889,-1.82629 1.5199736,-4.39209 1.7830771,-5.70178 0.8546936,-4.25453 0.4961964,-14.42461 -0.8673751,-24.60625 -0.4884986,-3.64756 -1.0324409,-9.11776 -1.5522601,-15.61041 -0.2213647,-2.7649 -0.5218345,-6.48999 -0.6677107,-8.27797 -0.2915878,-3.57396 -2.1012225,-15.09222 -2.9004785,-18.46144 -0.751875,-3.16949 -1.255427,-6.31537 -1.860812,-11.62518 -0.921012,-8.07816 -2.377513,-18.95992 -2.786984,-20.82202 -0.214315,-0.97461 -0.389664,-1.83363 -0.389664,-1.90892 0,-0.29348 1.106491,-0.70209 2.953183,-1.09055 1.061369,-0.22327 2.171707,-0.56447 2.467418,-0.75823 0.7810951,-0.51179 2.5865811,-0.84986 8.6383435,-1.6175 2.96336193,-0.37588 5.6260558,-0.73162 5.9170975,-0.79053 6.491412,-1.31384 19.353432,-3.54051 22.225,-3.84759 1.455208,-0.15562 2.838574,-0.33885 3.074146,-0.40718 0.285239,-0.0827 0.534977,-0.67435 0.74762,-1.77106 0.699683,-3.60865 0.898448,-4.2176 1.864548,-5.71234 1.235088,-1.91092 2.29549,-2.73816 4.425651,-3.45252 3.485944,-1.16904 7.959365,-0.33401 10.594742,1.97766 1.121786,0.984 1.649458,1.75998 2.717266,3.99592 1.271484,2.66245 1.354383,2.76869 2.047457,2.62393 3.074606,-0.64218 8.166909,-1.47636 9.01248,-1.47636 0.566677,0 1.671651,-0.12491 2.455498,-0.27758 0.783847,-0.15266 2.853925,-0.45384 4.600175,-0.66928 1.74625,-0.21544 4.008438,-0.49896 5.027084,-0.63005 8.37475,-1.07776 12.230687,-1.52006 16.271875,-1.86648 1.673489,-0.14346 3.459427,-0.3241 3.96875,-0.40143 1.426546,-0.21659 5.259152,-0.89916 6.879166,-1.22516 2.567232,-0.51662 7.511452,-1.2031 8.462472,-1.17498 0.9032,0.0267 0.93105,0.0613 1.37698,1.71291 0.25032,0.92711 0.51404,1.74457 0.58605,1.81658 0.072,0.072 0.88112,-0.0141 1.79802,-0.19142 0.91691,-0.17728 1.99453,-0.38318 2.39471,-0.45754 0.54353,-0.10101 0.7276,-0.0296 0.7276,0.28238 0,0.56034 -0.58763,0.82982 -2.71198,1.24369 -1.61945,0.31551 -1.78593,0.40788 -1.78593,0.9909 0,0.60368 0.0687,0.63375 1.12447,0.49225 0.61847,-0.0829 2.16628,-0.22956 3.43959,-0.32592 1.99056,-0.15065 2.3151,-0.11768 2.3151,0.23513 0,0.48135 -0.37448,0.60671 -2.51354,0.84144 -0.87312,0.0958 -2.10308,0.3007 -2.73323,0.45531 -0.98381,0.24138 -1.12453,0.36003 -0.99579,0.83966 0.0825,0.3072 0.15155,0.65962 0.15353,0.78316 0.002,0.12353 1.10494,0.19829 2.45101,0.16612 3.0823,-0.0737 3.10886,-0.0704 3.10886,0.382 0,0.4178 -0.60113,0.56907 -3.26941,0.82275 l -1.81419,0.17248 0.16551,0.82754 c 0.091,0.45515 0.27707,0.93911 0.41342,1.07546 0.24434,0.24434 3.06978,0.26593 3.45733,0.0264 0.35284,-0.21807 1.86496,0.19975 1.76864,0.4887 -0.10297,0.30891 -2.55139,0.9445 -3.70617,0.96209 -0.88095,0.0134 -1.10342,0.4561 -0.72691,1.4464 0.27316,0.71848 0.30895,0.72917 1.84408,0.551 1.72217,-0.19988 2.66144,-0.0194 2.66144,0.51152 0,0.21459 -0.47592,0.4022 -1.25677,0.49541 -0.69122,0.0825 -1.49489,0.20762 -1.78593,0.27801 -0.29105,0.0704 -0.61847,0.13708 -0.72761,0.14821 -0.23832,0.0243 -0.26271,1.13238 -0.0378,1.7184 0.11737,0.30584 0.52696,0.41949 1.52136,0.42213 1.69528,0.005 2.55138,0.22412 2.55138,0.65453 0,0.20743 -0.57033,0.397 -1.52136,0.50565 -1.98355,0.22661 -2.14901,0.35294 -1.86478,1.42374 l 0.23034,0.86775 2.04092,-0.074 c 1.67065,-0.0606 2.04092,-0.002 2.04092,0.32288 0,0.28482 -0.50638,0.47992 -1.79343,0.69099 -1.98841,0.3261 -2.1789,0.4254 -1.95173,1.01739 0.11355,0.29589 0.54135,0.4094 1.55404,0.41234 2.69655,0.008 2.75257,1.04162 0.0685,1.26421 -1.15518,0.0958 -1.4474,0.20705 -1.33222,0.5072 0.0811,0.21146 0.14754,0.5479 0.14754,0.74763 0,0.26421 0.48655,0.38446 1.78594,0.44138 1.37634,0.0603 1.78593,0.16926 1.78593,0.47511 0,0.28027 -0.44697,0.464 -1.52135,0.62535 -1.50761,0.2264 -1.52136,0.23656 -1.52136,1.12447 v 0.89601 h 1.43799 c 1.56409,0 2.91463,0.38671 2.67945,0.76722 -0.0812,0.13148 -0.86254,0.32201 -1.73618,0.42341 -0.87365,0.10139 -1.65355,0.28968 -1.73311,0.41841 -0.0795,0.12872 -0.064,0.66383 0.0345,1.18913 0.17608,0.93857 0.19804,0.95312 1.2696,0.84119 2.02015,-0.21101 3.18693,0.68894 1.28887,0.99411 -2.19814,0.35342 -2.22151,0.3658 -2.13335,1.13045 0.0771,0.66858 0.18685,0.72765 1.58362,0.85215 0.82543,0.0736 1.58149,0.21448 1.68014,0.31312 0.37667,0.37668 -0.20961,0.73497 -1.47795,0.90323 -1.49061,0.19773 -1.59225,0.28081 -1.29722,1.06036 0.16076,0.42476 0.50711,0.59174 1.44715,0.6977 1.17509,0.13245 1.98437,0.55106 1.67106,0.86437 -0.0797,0.0797 -0.76205,0.21801 -1.51631,0.30734 l -1.3714,0.16242 0.1758,0.82155 c 0.22517,1.05229 0.17377,1.0135 1.46506,1.10548 1.95517,0.13926 1.94529,0.84125 -0.0163,1.1601 -0.60742,0.0987 -0.96383,0.31586 -1.02303,0.62323 -0.1591,0.82616 0.46059,1.24003 1.85674,1.24003 1.10468,0 1.29613,0.0726 1.22189,0.46302 -0.0683,0.35908 -0.40438,0.48115 -1.4973,0.54378 -1.13596,0.0651 -1.37923,0.1591 -1.2543,0.48466 0.0853,0.22215 0.15572,0.84065 0.15661,1.37445 0.002,0.9699 0.002,0.97058 1.20205,1.00402 0.66023,0.0184 1.27178,0.10483 1.359,0.19204 0.36923,0.36924 -0.57446,0.96512 -1.52843,0.96512 -1.36943,0 -1.13334,0.61121 0.3644,0.94337 1.52243,0.33763 1.51668,1.01193 -0.01,1.12236 -1.02979,0.0745 -1.12447,0.14246 -1.12447,0.80698 0,0.96383 0.44546,1.36062 1.52752,1.36062 0.70706,0 0.87429,0.0962 0.80478,0.46302 -0.0613,0.32359 -0.38586,0.48775 -1.07774,0.54514 -0.96639,0.0802 -0.98998,0.10755 -0.98998,1.14931 v 1.06719 l 1.27534,-0.17541 c 0.98682,-0.13572 1.35247,-0.0825 1.61626,0.23537 0.28922,0.34849 0.24054,0.44894 -0.32106,0.66246 -0.36408,0.13842 -1.09139,0.33224 -1.61625,0.4307 -0.69597,0.13057 -0.95429,0.3143 -0.95429,0.67875 0,0.41088 0.1999,0.50044 1.12448,0.50377 2.23966,0.008 2.36508,0.89267 0.17946,1.26579 -0.66466,0.11346 -1.1602,0.33996 -1.14519,0.52342 0.0145,0.17787 0.0443,0.69725 0.0661,1.15417 l 0.0397,0.83077 1.43971,-0.14859 c 1.65961,-0.17129 2.52904,-0.008 2.52904,0.47398 0,0.44379 -0.43119,0.59161 -2.36338,0.81022 -1.99336,0.22552 -2.18537,0.79831 -0.3486,1.03992 0.69123,0.0909 1.434,0.18888 1.65061,0.21769 0.21661,0.0288 0.43257,0.25348 0.4799,0.49928 0.0722,0.37506 -0.18255,0.45966 -1.58446,0.52613 -1.65511,0.0785 -1.67126,0.0868 -1.75052,0.89997 l -0.08,0.82076 1.65269,0.17273 c 2.44229,0.25527 2.83656,1.22846 0.49769,1.22846 -1.68522,0 -2.12269,0.19223 -2.12269,0.93271 0,1.26381 0.23335,1.44854 1.82982,1.44854 1.59168,0 2.95751,0.5923 2.11753,0.91828 -0.23005,0.0893 -1.18255,0.24661 -2.11666,0.34963 -1.67809,0.18506 -1.69939,0.19758 -1.78131,1.04719 l -0.0829,0.8599 h 2.15083 c 3.39065,0 4.42243,0.87261 1.38843,1.17424 -3.45822,0.34382 -3.50573,0.36237 -3.50573,1.36875 v 0.89659 h 2.48115 c 1.84951,0 2.56254,0.0981 2.8009,0.38529 0.60511,0.72911 0.0153,0.93763 -2.65183,0.93763 h -2.63022 v 1.09876 1.09876 l 2.91042,-0.16653 c 2.76969,-0.15846 2.91041,-0.14147 2.91041,0.35141 0,0.60973 -0.35829,0.70502 -3.38699,0.90076 -1.208,0.0781 -2.30933,0.21176 -2.4474,0.29709 -0.13806,0.0853 -0.25102,0.56469 -0.25102,1.06525 v 0.91011 l 3.49816,-0.0658 c 3.02452,-0.0569 3.5097,-0.009 3.58341,0.35639 0.0722,0.35739 -0.45482,0.47142 -3.43201,0.74262 -1.9345,0.17622 -3.59583,0.40294 -3.69185,0.50382 -0.096,0.10088 -0.21508,0.71114 -0.26458,1.35613 l -0.09,1.17271 2.91042,-0.0653 c 1.60073,-0.0359 3.14854,-0.11833 3.43958,-0.18316 0.29105,-0.0648 0.70677,-0.003 0.92383,0.13834 0.81095,0.52643 -0.26933,0.89991 -3.59171,1.24176 -1.83974,0.1893 -3.51013,0.48124 -3.71199,0.64876 -0.20185,0.16753 -0.367,0.67782 -0.367,1.134 0,0.82336 0.009,0.82887 1.25677,0.75608 0.69122,-0.0403 2.34842,-0.18998 3.68267,-0.33258 1.33424,-0.1426 2.61416,-0.18702 2.84427,-0.0987 0.4175,0.16021 0.5961,0.89323 0.21993,0.90266 -0.85374,0.0214 -8.05021,1.05091 -8.26231,1.18199 -0.14877,0.0919 -0.2705,0.41067 -0.2705,0.70827 0,0.51561 0.10278,0.53277 2.18281,0.36447 1.20055,-0.0971 3.1195,-0.28653 4.26433,-0.42087 2.18367,-0.25625 2.54869,-0.196 2.54869,0.42069 0,0.49163 -1.04093,0.67513 -7.71566,1.36016 -1.48046,0.15194 -1.50102,0.1658 -1.76001,1.18612 l -0.26205,1.03239 2.02459,-0.15342 c 1.84805,-0.14005 5.02037,-0.47738 7.49873,-0.79738 1.09058,-0.14081 1.60455,0.30103 0.92672,0.79668 -0.23477,0.17167 -1.89007,0.45473 -3.67844,0.62902 -3.40448,0.33181 -6.79066,0.9463 -7.10961,1.2902 -0.10299,0.11105 -0.27044,0.59634 -0.37211,1.07843 -0.18435,0.87421 -0.18251,0.87611 0.69974,0.72294 2.59891,-0.4512 11.45824,-1.18578 11.67589,-0.96813 0.57927,0.57927 -1.05196,1.07617 -4.35321,1.32605 -1.83409,0.13883 -4.38321,0.46065 -5.66473,0.71515 -1.73857,0.34528 -2.35648,0.38341 -2.4342,0.15023 -0.18798,-0.56394 -0.58815,-0.0307 -0.58815,0.78377 v 0.79717 l 1.38907,-0.14907 c 5.95351,-0.63895 11.64925,-0.97944 11.91633,-0.71236 0.44309,0.44309 -0.10418,0.85238 -1.30369,0.97499 -0.56182,0.0574 -2.69708,0.22767 -4.74501,0.37832 -2.04793,0.15064 -4.13074,0.39068 -4.62846,0.53343 -0.49772,0.14274 -1.47128,0.25953 -2.16347,0.25953 -1.06424,0 -1.25852,0.0784 -1.25852,0.50753 0,0.27914 -0.0723,0.69586 -0.16059,0.92604 -0.13759,0.35854 0.11834,0.41773 1.78593,0.41301 1.90244,-0.005 9.56854,-0.59521 12.33144,-0.94878 1.15181,-0.1474 1.38906,-0.1081 1.38906,0.23009 0,0.67743 -1.39239,0.95968 -6.91307,1.40136 -2.90031,0.23203 -6.19254,0.56195 -7.31605,0.73314 -1.76129,0.26838 -2.04276,0.38406 -2.04276,0.83954 0,0.50716 0.15869,0.5259 3.96875,0.4686 2.18282,-0.0328 5.42993,-0.2028 7.21582,-0.37772 2.57961,-0.25267 3.31383,-0.25034 3.57188,0.0113 0.64928,0.65844 -0.50507,1.03053 -3.72636,1.20114 -5.10543,0.2704 -11.26661,0.71023 -11.71754,0.83649 -0.32254,0.0903 -1.03195,1.12771 -1.0324,1.50973 -1.6e-4,0.13444 7.20309,-0.10095 11.46137,-0.37454 4.94075,-0.31744 5.69376,-0.21196 4.94317,0.69245 -0.23885,0.28779 -0.72813,0.40293 -1.56306,0.36782 -2.00157,-0.0842 -9.74306,0.28767 -12.81053,0.61532 l -2.8639,0.30589 -0.53609,1.05082 -0.53608,1.05082 2.47394,-0.18262 c 1.36067,-0.10044 4.79567,-0.29579 7.63333,-0.4341 2.83765,-0.13832 5.82853,-0.32657 6.64639,-0.41834 1.03086,-0.11568 1.54729,-0.0693 1.68351,0.15107 0.40778,0.6598 -0.48075,0.91883 -3.76964,1.09893 -8.5055,0.46576 -13.68426,0.80836 -13.85988,0.9169 -0.10528,0.0651 -1.24086,0.2838 -2.52351,0.48608 -2.14255,0.33788 -6.37714,1.88862 -7.09458,2.59809 -0.17448,0.17254 0.59141,0.20124 2.24896,0.0843 1.38244,-0.0975 2.75166,-0.18149 3.0427,-0.18655 0.56878,-0.01 5.25235,-0.6062 13.09688,-1.6675 7.35413,-0.99496 8.10103,-1.05471 8.34046,-0.66732 0.2878,0.46567 -0.65939,1.10727 -1.37135,0.92893 -0.31434,-0.0787 -1.44543,0.0236 -2.51354,0.22748 -1.06812,0.20386 -3.6089,0.5715 -5.6462,0.81699 -2.03729,0.24549 -5.19244,0.66668 -7.01145,0.93598 -4.1842,0.61946 -11.34337,1.15709 -12.379015,0.92962 -0.584142,-0.1283 -1.81098,0.18119 -4.722265,1.19123 -2.163204,0.75051 -5.183256,1.77313 -6.711225,2.2725 -1.926312,0.62955 -2.413063,0.85976 -1.5875,0.75081 0.654844,-0.0864 3.393281,-0.44576 6.085417,-0.79853 4.906224,-0.64292 6.999142,-0.96096 17.330208,-2.63357 3.05594,-0.49476 6.71711,-1.02483 8.13594,-1.17792 1.41883,-0.1531 3.68656,-0.40299 5.03939,-0.5553 1.35285,-0.15232 2.66253,-0.19911 2.91042,-0.10399 0.48789,0.18722 0.60406,0.78409 0.20108,1.03314 -0.21994,0.13593 -4.04655,0.58812 -9.27537,1.09606 -0.94589,0.0919 -3.4462,0.46254 -5.55625,0.82366 -3.79862,0.65012 -4.38643,0.74002 -9.78958,1.49725 -9.66076,1.35392 -16.054961,2.31573 -17.909762,2.69397 -0.375076,0.0765 -0.7097,-0.0676 -0.948436,-0.40848 -0.364405,-0.52026 -0.407173,-0.5154 -3.521493,0.39998 -2.755588,0.80994 -10.470843,2.61973 -13.432245,3.15084 -0.560573,0.10054 -0.966909,0.23511 -0.902967,0.29905 0.06394,0.0639 1.772748,-0.11344 3.797347,-0.39418 2.0246,-0.28073 5.824652,-0.70558 8.444556,-0.9441 4.358068,-0.39676 6.255829,-0.67471 12.434453,-1.82115 1.164167,-0.21601 4.438386,-0.64383 7.276042,-0.95071 5.013715,-0.54221 6.472075,-0.76064 12.567705,-1.88229 5.17994,-0.95317 5.53587,-1.01155 7.01146,-1.15003 0.80037,-0.0751 2.5863,-0.20138 3.96875,-0.2806 1.38245,-0.0792 3.25616,-0.21539 4.16381,-0.3026 1.39484,-0.13401 1.67669,-0.0897 1.82106,0.28656 0.0939,0.24482 0.0473,0.56859 -0.10356,0.7195 -0.15091,0.15091 -2.16102,0.38539 -4.46691,0.52108 -5.06766,0.2982 -10.10729,0.90526 -12.79148,1.54082 -3.22211,0.76293 -5.03813,1.10042 -7.14375,1.3276 -8.318687,0.89751 -10.792237,1.23614 -14.552085,1.99215 -3.40464,0.68459 -5.89076,0.99324 -12.832292,1.59313 -2.619375,0.22637 -4.941093,0.46339 -5.159375,0.52672 -0.218281,0.0633 -2.004218,0.35408 -3.96875,0.64613 -1.964531,0.29204 -5.417343,0.8317 -7.672916,1.19924 -7.665612,1.2491 -11.502745,1.70617 -15.213542,1.81219 -2.037292,0.0582 -4.478073,0.23728 -5.423958,0.39794 -0.945886,0.16066 -3.029479,0.48128 -4.630209,0.71249 -4.471675,0.64588 -9.289375,1.66473 -11.773958,2.48996 -4.962483,1.64824 -5.789636,1.85979 -8.334375,2.13149 -3.3979591,0.36281 -7.8079335,0.96372 -9.6272588,1.31183 -2.0264768,0.38776 -3.61103414,0.34304 -3.98916394,-0.11258 z M 47.989285,260.24761 c 0.218281,-0.0712 2.171115,-0.35791 4.33963,-0.63723 2.168514,-0.27931 4.011824,-0.57692 4.096244,-0.66133 0.08442,-0.0844 -0.439663,-0.0815 -1.164629,0.006 -7.367265,0.89367 -11.306739,1.44072 -11.456665,1.59091 -0.188595,0.18893 3.496273,-0.0741 4.18542,-0.29875 z m -8.069792,-1.15889 c 10.069415,-0.54925 26.218518,-3.05634 35.454167,-5.50413 14.14059,-3.74779 25.11339,-7.61155 32.27917,-11.3662 2.79824,-1.4662 2.96964,-1.71242 5.28881,-7.59771 2.81014,-7.1312 4.62103,-15.09857 5.47243,-24.07708 0.45569,-4.80546 0.45505,-26.11505 -10e-4,-33.30995 -0.83883,-13.23486 -4.38369,-34.4223 -7.57427,-45.2713 -0.64194,-2.18281 -1.5127,-5.21891 -1.93503,-6.74688 -0.7092,-2.5659 -0.81663,-2.77634 -1.40625,-2.75485 -1.00572,0.0367 -6.13151,0.83473 -9.8988,1.54121 -1.891771,0.35477 -4.451615,0.72436 -5.688542,0.82131 -1.236927,0.097 -4.273021,0.40471 -6.746875,0.6839 -2.473854,0.27918 -5.62901,0.63127 -7.011458,0.7824 -1.382448,0.15114 -2.692135,0.32435 -2.910417,0.38492 -0.218281,0.0606 -2.004218,0.29301 -3.96875,0.51655 -3.304085,0.37596 -6.364673,0.79545 -13.890625,1.90389 -2.676215,0.39416 -5.66443,1.03545 -5.893837,1.26486 -0.05232,0.0523 -0.129701,0.5805 -0.171955,1.17372 -0.06111,0.85797 0.02334,1.11039 0.412784,1.234 0.985933,0.31292 3.147314,2.27414 3.699862,3.35723 0.312346,0.61224 0.791091,1.41505 1.063879,1.78402 0.272791,0.36896 0.626957,1.41441 0.78704,2.32322 l 0.29106,1.65237 h 1.802173 c 2.008354,0 2.639203,0.15811 2.639203,0.66146 0,0.48981 -0.623539,0.66146 -2.402891,0.66146 -1.383649,0 -1.565859,0.0609 -1.565859,0.52333 0,0.5002 0.219085,0.52651 4.957519,0.59531 4.329737,0.0629 4.967978,0.12642 5.040103,0.50188 0.07312,0.38061 -0.461938,0.44274 -4.66775,0.54201 -3.478445,0.0821 -4.866346,0.2084 -5.183611,0.47171 -0.238299,0.19777 -0.338928,0.45304 -0.22362,0.56727 0.115308,0.11423 2.923535,0.29232 6.240505,0.39576 5.318619,0.16587 6.021181,0.23797 5.948963,0.61051 -0.07199,0.37137 -0.809795,0.42485 -6.103782,0.44244 -5.838587,0.0194 -6.869178,0.1553 -6.440299,0.84924 0.08897,0.14395 3.258754,0.33841 7.319698,0.44905 6.434269,0.17528 7.1541,0.23926 7.077469,0.62904 -0.07702,0.39176 -0.778642,0.42598 -7.223689,0.35223 -6.90023,-0.0789 -8.582628,0.0488 -8.788802,0.66732 -0.170299,0.51089 1.248259,0.62505 9.046633,0.72806 7.216691,0.0953 8.596088,0.24487 7.975995,0.8647 -0.111612,0.11157 -4.21926,0.16934 -9.128107,0.12839 -8.476969,-0.0707 -8.947967,-0.0493 -9.379013,0.42704 -0.436695,0.48254 -0.416042,0.50773 0.546788,0.66685 0.550344,0.0909 2.727031,0.18282 4.837083,0.20416 7.098437,0.0718 10.170557,0.30933 10.262841,0.79364 0.119525,0.62725 -0.281792,0.67864 -3.648258,0.46721 -1.673489,-0.1051 -5.582708,-0.20108 -8.687152,-0.21329 -4.404918,-0.0173 -5.620586,0.0504 -5.535797,0.30854 0.131371,0.3999 -0.03226,0.3863 9.937813,0.82601 7.819795,0.34487 9.058474,0.52575 8.362987,1.22124 -0.171394,0.17139 -1.942269,0.1746 -5.146146,0.009 -2.686655,-0.13859 -6.905754,-0.28595 -9.375775,-0.32746 -3.994803,-0.0671 -4.500583,-0.0273 -4.578175,0.3601 -0.07606,0.37979 0.346527,0.45606 3.30032,0.59564 1.863153,0.088 4.697238,0.28211 6.297967,0.43126 1.600729,0.14915 4.337857,0.35736 6.082506,0.46269 2.780779,0.16788 3.183536,0.25141 3.26489,0.67708 0.08767,0.45874 -0.109514,0.47602 -3.568965,0.31273 -2.013971,-0.0951 -4.554733,-0.27877 -5.646139,-0.40826 -1.925746,-0.22847 -10.380837,-0.57828 -15.213542,-0.62943 -2.241907,-0.0237 -2.386089,-0.0592 -2.463961,-0.6065 -0.08046,-0.56545 -0.02993,-0.57691 1.852083,-0.42005 1.782903,0.1486 1.906288,0.12673 1.57167,-0.27859 -0.283718,-0.34366 -0.83339,-0.44054 -2.513542,-0.44299 -2.502776,-0.004 -4.33551,-0.43481 -6.229072,-1.46542 -3.136318,-1.707 -4.857184,-4.08099 -6.510798,-8.98188 -1.207759,-3.57949 -1.318075,-5.57013 -0.399277,-7.20491 l 0.605411,-1.07719 -0.79965,-1.60024 c -0.439809,-0.88014 -0.956336,-2.2116 -1.147839,-2.9588 -0.339643,-1.32522 -0.367922,-1.35433 -1.15244,-1.18614 -0.442339,0.0948 -1.980692,0.27964 -3.418565,0.41069 -1.437873,0.13106 -4.890686,0.66028 -7.672917,1.17604 -2.782231,0.51578 -7.618447,1.41515 -10.7471447,1.99862 -3.1286979,0.58347 -7.37828325,1.23648 -9.4435234,1.45113 -4.0757787,0.4236 -6.1923779,0.80558 -7.2252266,1.30392 -0.3638023,0.17553 -1.5841923,0.54208 -2.7119793,0.81455 -2.363138,0.57095 -2.304039,0.43672 -1.674345,3.80263 0.206896,1.10593 0.512154,3.26093 0.678349,4.7889 0.166196,1.52797 0.413511,3.37344 0.54959,4.10104 0.136078,0.72761 0.487085,3.64464 0.780015,6.4823 0.719989,6.97465 1.223335,10.33397 2.1385655,14.27277 0.9794854,4.21533 2.8246422,15.36032 3.0030264,18.13868 0.074745,1.16417 0.2631247,4.0812 0.4186211,6.4823 0.1554967,2.40109 0.4523166,5.70414 0.6595996,7.3401 0.2072833,1.63597 0.3127759,3.14154 0.2344277,3.34571 -0.078348,0.20417 -0.019685,0.83019 0.1303637,1.39114 0.4416853,1.65125 1.6018174,12.19779 2.0275079,18.4317 0.645736,9.4563 -0.046943,14.86549 -2.5419587,19.85038 -0.5802109,1.15922 -1.023143,2.13814 -0.9842934,2.17537 1.5101922,1.4472 7.57729915,5.0501 8.9373982,5.3074 0.5075513,0.096 1.117046,0.3425 1.3544355,0.54772 0.6462104,0.55867 5.1775174,2.11425 7.5719465,2.59942 1.15756,0.23456 3.34265,0.53067 4.855755,0.65805 3.249377,0.27353 17.045064,0.11974 24.18235,-0.26958 z M 1.0327371,252.5462 c -1.69676581,-2.0422 -4.8850982,-6.6258 -4.8311269,-6.94531 0.036871,-0.21828 0.3186997,-0.43295 0.6262852,-0.47705 0.4266279,-0.0612 0.73489,0.22118 1.2999278,1.19062 0.407375,0.69895 1.49395101,2.26084 2.41461343,3.47089 1.64470477,2.16168 2.06461387,3.22387 1.27446727,3.22387 -0.2197058,0 -0.5725806,-0.20836 -0.7841668,-0.46302 z m -4.0054099,-1.84365 c -0.2473838,-0.40482 -0.7219786,-1.16956 -1.0546551,-1.69943 -0.600034,-0.95569 -0.5878737,-1.28556 0.047391,-1.28556 0.3739015,0 1.9629723,2.45372 1.9629723,3.03107 0,0.71335 -0.5065466,0.68893 -0.9557078,-0.0461 z m 4.2069313,-2.52197 c -1.28833769,-1.4068 -4.0355062,-5.29137 -3.8986523,-5.51281 0.275086,-0.4451 1.1474424,-0.24827 1.5664392,0.35343 1.6565152,2.37884 3.5012378,5.39146 3.4022696,5.55625 -0.2014021,0.33535 -0.5013801,0.22409 -1.0700565,-0.39687 z M 2.6225417e-4,243.38212 C -2.229155,241.2825 -2.6488077,240.54701 -1.7202456,240.36674 c 0.401914,-0.078 4.7303639,4.45031 4.7303639,4.94881 0,0.66246 -0.7973599,0.15026 -3.00985604583,-1.93343 z M 99.230258,243.57242 c -0.381696,-0.3817 -0.145492,-0.88225 0.418923,-0.88776 0.327422,-0.003 1.114329,-0.24132 1.748679,-0.52916 2.33384,-1.05901 2.60259,-0.30566 0.30883,0.8657 -1.42021,0.72527 -2.141776,0.88588 -2.476432,0.55122 z M 0.05450845,240.62427 C -1.7022685,239.1256 -2.1306337,238.3211 -1.3345048,238.0156 c 0.46721603,-0.17929 2.8526824,2.01731 3.6421689,3.35381 0.4488979,0.75992 0.4484865,0.79126 -0.010192,0.77621 -0.2628887,-0.009 -1.2722225,-0.69323 -2.24296365,-1.52135 z M 101.58388,239.54213 c -0.24783,-0.40101 0.0555,-0.82017 0.59446,-0.82154 0.24607,-5.3e-4 0.98318,-0.3573 1.63803,-0.79262 2.18918,-1.45529 2.91231,-0.89371 0.82356,0.63958 -1.38503,1.0167 -2.75918,1.45492 -3.05605,0.97458 z M 1.224452,238.33456 c -1.84351398,-0.85828 -2.8757589,-1.87514 -2.4384285,-2.40209 0.4729641,-0.56989 0.74234327,-0.48747 1.98207176,0.60644 0.61844504,0.5457 1.43543154,1.20611 1.81552584,1.46756 0.7335674,0.5046 0.9094359,0.98154 0.3603514,0.97725 -0.181901,-0.001 -0.9556853,-0.29354 -1.7195205,-0.64916 z m 102.327328,-2.65943 c 0,-0.41551 0.74856,-0.94129 3.09317,-2.17258 1.41015,-0.74056 2.02885,-0.69603 1.37631,0.099 -0.56935,0.69372 -3.43443,2.47429 -3.98133,2.47429 -0.26848,0 -0.48815,-0.18034 -0.48815,-0.40076 z M 2.1539386,235.54786 c -1.22123018,-0.36772 -2.5834036,-1.34133 -2.5834036,-1.84649 0,-0.86334 0.70727649,-0.77675 2.0799195,0.25463 0.7423248,0.55777 1.4920693,1.06159 1.6661016,1.11961 0.1740297,0.058 0.2287799,0.24727 0.121666,0.42058 -0.218784,0.354 -0.2729574,0.35618 -1.2842835,0.0517 z M 104.61189,232.50615 c -0.24251,-0.2922 -0.12653,-0.45567 0.57482,-0.8102 1.01138,-0.51126 3.74618,-2.49638 3.87723,-2.81438 0.11387,-0.27632 1.10243,-0.28037 1.10243,-0.005 0,0.27744 -2.03181,2.20582 -3.0743,2.91781 -1.32693,0.90626 -2.12776,1.13593 -2.48018,0.71129 z M 0.52333319,231.9821 c -0.85840888,-0.35291 -1.67789009,-0.7588 -1.82106939,-0.90198 -0.3298907,-0.32989 -0.051943,-1.09067 0.39694642,-1.08649 0.63809007,0.006 3.51391218,1.76817 3.59957928,2.20573 0.1149821,0.5873 -0.325442,0.54331 -2.17545631,-0.21726 z M 105.31567,229.28492 c -0.35957,-0.35957 -0.14868,-0.62058 0.94809,-1.17338 0.61847,-0.31173 1.84703,-1.07866 2.73014,-1.7043 1.08232,-0.76676 1.72364,-1.06461 1.96763,-0.91381 0.45969,0.2841 -0.78285,1.4993 -3.019,2.95252 -1.50204,0.97615 -2.2506,1.21523 -2.62686,0.83897 z M -0.6279025,228.10795 c -0.9364639,-0.59973 -1.0775905,-0.96096 -0.4669684,-1.19528 0.39416935,-0.15126 2.7807118,1.18414 2.7815995,1.55645 9.525e-4,0.40351 -1.48189263,0.17213 -2.3146311,-0.36117 z M 106.10942,226.10992 c -0.097,-0.097 -0.17639,-0.31251 -0.17639,-0.47887 0,-0.31686 5.04774,-3.57808 5.53819,-3.57808 0.8476,0 -0.003,0.95069 -2.23077,2.49311 -2.5253,1.74846 -2.80614,1.88873 -3.13103,1.56384 z M -0.89248583,225.42727 c -0.58779937,-0.18856 -0.85989587,-0.44164 -0.85989587,-0.79981 0,-0.44827 0.1222246,-0.49952 0.84606504,-0.35475 1.0609834,0.21219 2.13153126,0.89709 1.92487606,1.23147 -0.19147105,0.30981 -0.77928341,0.28615 -1.91104523,-0.0769 z m -0.0629229,-2.66163 c -0.95719697,-0.32756 -1.45116437,-1.24183 -0.67094227,-1.24183 0.69995992,0 1.99063605,0.77637 1.99063605,1.19742 0,0.45832 -0.10030539,0.4617 -1.31969378,0.0444 z M 108.16046,222.01813 c -0.10178,-0.16468 -0.0195,-0.39211 0.18282,-0.50539 0.20234,-0.11328 0.83074,-0.57386 1.39645,-1.02349 1.03743,-0.82457 1.60238,-1.00512 1.85683,-0.59343 0.23671,0.38301 -2.22875,2.42174 -2.92866,2.42174 -0.17731,0 -0.40566,-0.13474 -0.50744,-0.29943 z M -1.3555067,220.76504 c -0.8734718,-0.18979 -1.0830491,-0.89806 -0.3098011,-1.04698 0.6617083,-0.12743 2.07232804,0.48683 1.95149389,0.84979 -0.12099661,0.36345 -0.60757859,0.42189 -1.64169279,0.19719 z m -0.034383,-2.00359 c -1.0266664,-0.44679 -1.3277744,-0.89259 -0.7520876,-1.11351 0.5823386,-0.22346 2.24167907,0.58594 2.24167907,1.09346 0,0.48882 -0.40004974,0.49421 -1.48959147,0.0201 z m -0.8255127,-2.17537 c -0.5933699,-0.23943 -0.3613833,-0.88311 0.3182797,-0.88311 0.7620918,0 1.99682447,0.51708 1.99682447,0.83622 0,0.23601 -1.75816337,0.27162 -2.31510417,0.0469 z m 0.6614583,-1.86498 c -1.0367012,-0.41548 -1.2895167,-0.96408 -0.5712931,-1.23969 0.4289812,-0.16462 1.96035563,0.74594 1.96035563,1.16563 0,0.44628 -0.40625527,0.46794 -1.38906253,0.0741 z m -0.5291666,-2.34446 c -0.4001823,-0.2171 -0.7276042,-0.51373 -0.7276042,-0.65917 0,-0.51278 0.7757417,-0.55297 1.5738009,-0.0815 1.51036896,0.89219 0.71552306,1.58796 -0.8461967,0.74071 z m -0.4205502,-2.506 c -0.7270224,-0.44324 -0.8267584,-0.60714 -0.5629159,-0.92505 0.1763607,-0.2125 0.402689,-0.38637 0.5029518,-0.38637 0.3504766,0 1.3404101,1.08233 1.3404101,1.46552 0,0.51456 -0.2288696,0.48702 -1.280446,-0.1541 z M 55.794493,163.31273 c -0.582083,-0.12724 -1.508553,-0.2382 -2.058823,-0.24659 -0.65386,-0.01 -1.055621,-0.15891 -1.159613,-0.42991 -0.320649,-0.8356 0.301646,-0.96604 2.592043,-0.54335 1.217642,0.22471 2.704473,0.33999 3.304069,0.25618 1.087761,-0.15205 1.748809,0.22123 1.254792,0.70857 -0.358804,0.35395 -2.765946,0.51011 -3.932468,0.2551 z m 9.327404,-1.73825 c -0.169283,-0.16929 -13.038997,-0.7511 -15.148237,-0.68483 -1.872192,0.0588 -2.513542,-0.13361 -2.513542,-0.75422 0,-0.46676 0.180978,-0.52389 1.653646,-0.52201 0.909505,0.001 3.077872,0.17976 4.818589,0.39688 1.74072,0.21712 5.07447,0.39638 7.408334,0.39837 4.498821,0.004 5.434015,0.11748 5.434015,0.6604 0,0.50593 -1.265346,0.89286 -1.652805,0.50541 z m -75.699179,-10.89286 c -0.220419,-0.69122 -0.578586,-2.14974 -0.795926,-3.24115 -0.217341,-1.0914 -0.522817,-2.31954 -0.678836,-2.7292 -0.392648,-1.03097 -0.354558,-1.76871 0.09132,-1.76871 0.499093,0 1.104822,1.71914 1.631418,4.6302 0.236916,1.30969 0.5967694,2.70276 0.7996736,3.09572 0.4979022,0.96427 0.4644507,1.26991 -0.1389864,1.26991 -0.3732832,0 -0.6141252,-0.33311 -0.9086632,-1.25677 z m 1.4400237,-2.51799 c -0.4184036,-1.10049 -1.1179477,-4.94791 -1.0331697,-5.68234 0.05045,-0.43701 0.2675299,-0.7597 0.5466923,-0.81264 0.3750542,-0.0711 0.4637468,0.10437 0.4668422,0.92378 0.00209,0.55637 0.2771992,2.11563 0.6113272,3.46502 0.3341282,1.34938 0.55069,2.51024 0.481248,2.57968 -0.3153548,0.31536 -0.8652881,0.0727 -1.07294,-0.4735 z m 1.9896995,-1.9995 c -0.083602,-0.13527 -0.3275944,-0.99864 -0.5422051,-1.9186 -0.281827,-1.20808 -0.3108311,-1.76827 -0.1044291,-2.01697 0.7686415,-0.92616 1.1471087,-0.067 1.3525769,3.07054 0.056094,0.85656 -0.3805219,1.39157 -0.7059427,0.86503 z m 2.2729161,-1.43824 c -0.3219622,-0.38794 -0.5812967,-2.25573 -0.3853696,-2.77552 0.2411323,-0.63973 0.8395486,-0.32122 0.9942182,0.52917 0.3947813,2.17054 0.1322155,3.13928 -0.6088486,2.24635 z m 3.0113983,-0.8089 c -0.5642932,-0.41263 -0.8783333,-2.40991 -0.4231507,-2.69123 0.4826905,-0.29832 0.9901465,0.39505 1.1881934,1.6235 0.19471089,1.20775 -0.069416,1.57638 -0.7650427,1.06773 z m 2.28044617,-1.02735 c -0.43394683,-0.43395 -0.40031353,-1.66564 0.0558197,-2.0442 0.45966142,-0.38149 0.61610953,-0.14676 0.84145273,1.26246 0.1842516,1.15224 -0.1957213,1.48329 -0.89727243,0.78174 z M 101.57664,131.31582 c -0.0849,-0.13731 -0.0743,-1.38747 0.0234,-2.77813 0.12755,-1.81463 0.27536,-2.52847 0.52356,-2.52847 0.46577,0 0.68975,1.37667 0.53809,3.30729 -0.0686,0.87313 -0.13452,1.73633 -0.1465,1.91823 -0.0254,0.38629 -0.71325,0.4457 -0.93859,0.0811 z m 3.08468,-0.0855 c -0.37335,-0.44987 -0.70882,-4.77395 -0.41157,-5.3051 0.12962,-0.23163 0.36129,-0.33725 0.51482,-0.23471 0.30555,0.20407 0.92147,4.99213 0.71229,5.53723 -0.16469,0.42917 -0.46072,0.43011 -0.81554,0.003 z m -9.684824,-1.41835 c -0.09088,-0.23683 -0.08753,-1.01637 0.0074,-1.7323 0.132966,-1.00235 0.270939,-1.28311 0.599953,-1.22085 0.786824,0.14891 0.711658,3.38376 -0.07862,3.38376 -0.199941,0 -0.437886,-0.19377 -0.528765,-0.43061 z m 2.257439,0.0725 c -0.307428,-0.37043 -0.14804,-2.46583 0.234664,-3.08506 0.388744,-0.629 0.791519,0.043 0.791519,1.32051 0,1.95257 -0.358513,2.56904 -1.026183,1.76455 z m 2.08743,-0.63405 c 0.0047,-1.61185 0.307033,-2.97656 0.659347,-2.97656 0.475608,0 0.729418,2.03267 0.384358,3.0782 -0.408118,1.23661 -1.047452,1.17434 -1.043705,-0.10164 z m 7.038675,0.35657 c -0.21804,-0.86872 0.0934,-2.2748 0.5038,-2.2748 0.44389,0 0.65669,0.60719 0.65669,1.87372 0,0.8405 -0.0947,1.0367 -0.50048,1.0367 -0.30776,0 -0.56191,-0.24476 -0.66001,-0.63562 z M 64.459597,257.5965 c -0.181901,-0.0734 -0.479557,-0.0734 -0.661458,0 -0.181901,0.0734 -0.03307,0.13345 0.330729,0.13345 0.363802,0 0.512631,-0.0601 0.330729,-0.13345 z M 48.661623,156.98308 c -0.09592,-0.15521 -0.301016,-0.28219 -0.455766,-0.28219 -0.175445,0 -0.155371,0.15181 0.05332,0.40327 0.362886,0.43725 0.68721,0.33967 0.402447,-0.12108 z m -2.883442,-2.74274 -0.544645,-1.37591 -2.392437,-0.007 c -2.699774,-0.007 -5.474261,-0.72207 -7.108417,-1.83104 -0.534911,-0.36299 -0.972564,-0.6015 -0.972564,-0.53 0,0.46629 1.536129,2.29872 2.518315,3.00408 1.986743,1.42677 3.488727,1.95245 6.080644,2.12816 1.309687,0.0888 2.512311,0.12222 2.6725,0.0743 0.191588,-0.0573 0.104881,-0.55794 -0.253396,-1.46303 z m 2.518656,0.46658 c -0.16867,-0.98112 -0.897319,-2.23936 -1.296813,-2.23936 -0.430887,0 -0.369062,0.76902 0.17703,2.20206 0.332578,0.87274 1.26877,0.90393 1.119783,0.0373 z m 2.192456,-0.2649 c 0.456092,-0.34492 0.479005,-0.49124 0.198438,-1.26714 -0.174459,-0.48245 -0.317196,-1.07709 -0.317196,-1.32142 0,-0.50785 -0.226139,-0.54635 -1.148768,-0.19557 l -0.65405,0.24867 0.541922,1.47112 c 0.298059,0.80912 0.614395,1.46734 0.702972,1.46271 0.08858,-0.005 0.393083,-0.18389 0.676682,-0.39837 z m 2.451111,-1.8452 c 0.550965,-0.38591 0.556786,-0.44147 0.166293,-1.5875 -0.660881,-1.93958 -1.730407,-1.41408 -1.487038,0.73063 0.151498,1.33508 0.404064,1.49894 1.320745,0.85687 z m -6.789288,-1.34109 c 1.010994,-0.22995 1.838169,-0.50866 1.838169,-0.61936 0,-0.1107 -0.684609,-0.35051 -1.521354,-0.5329 -1.724933,-0.376 -2.812259,-0.96377 -2.554481,-1.38086 0.238363,-0.38569 1.646346,-0.12502 3.828296,0.70875 l 1.810025,0.69165 1.600007,-1.08654 c 0.880004,-0.5976 1.600007,-1.1989 1.600007,-1.33623 0,-0.13733 -0.327422,-0.32391 -0.727604,-0.41464 -0.400182,-0.0907 -1.441979,-0.34215 -2.315104,-0.55872 -0.873125,-0.21657 -2.182813,-0.49232 -2.910417,-0.61277 -0.727604,-0.12045 -1.561042,-0.30698 -1.852083,-0.41452 -0.312251,-0.11537 -0.441251,-0.0969 -0.314696,0.0451 0.117962,0.13233 1.308465,0.59778 2.645569,1.03434 1.596218,0.52117 2.45808,0.93986 2.509668,1.21918 0.06767,0.36641 -0.104111,0.39656 -1.238099,0.2173 -2.027166,-0.32046 -4.535948,-1.05337 -5.851401,-1.70942 -0.654843,-0.32659 -1.772102,-0.80166 -2.482799,-1.05573 -1.467298,-0.52453 -3.062632,-1.98903 -3.851786,-3.5359 -0.29464,-0.57754 -0.77647,-1.12649 -1.07074,-1.21989 -0.294267,-0.0934 -0.893334,-0.4713 -1.331259,-0.83979 -0.437927,-0.36849 -0.959,-0.60753 -1.157938,-0.53119 -0.19894,0.0763 -0.505164,0.73679 -0.680498,1.46767 -0.264895,1.10421 -0.249632,1.56612 0.09029,2.73228 0.455856,1.56389 1.942925,4.18129 3.028018,5.32962 2.270136,2.40243 6.660296,3.36921 10.910213,2.40259 z m 9.025017,-2.8932 c -0.389985,-0.8604 -0.438428,-0.88575 -0.897977,-0.46986 -0.394812,0.3573 -0.45302,0.66573 -0.310894,1.64735 0.248211,1.71435 0.37329,1.79951 1.034349,0.70418 0.55458,-0.9189 0.564147,-1.02206 0.174522,-1.88167 z m 1.518028,-3.4801 c 0.03142,-1.62904 -0.195506,-2.43236 -0.535561,-1.89591 -0.271574,0.42842 -0.30488,3.4268 -0.04556,4.10158 0.163724,0.42604 0.208545,0.40465 0.370501,-0.17679 0.101336,-0.36381 0.196115,-1.2768 0.210619,-2.02888 z m -2.835391,1.10172 c 0.166039,-0.36442 0.236196,-0.72827 0.155903,-0.80857 -0.239808,-0.2398 -5.862132,-1.19242 -6.222196,-1.05425 -0.99161,0.38051 0.428027,1.14399 3.239516,1.74219 0.873125,0.18578 1.70061,0.438 1.838855,0.56049 0.416874,0.36937 0.670702,0.25636 0.987922,-0.43986 z m -12.493379,-2.28031 c -0.376629,-1.31322 -0.963385,-2.03257 -1.632574,-2.00149 -0.333891,0.0155 -0.934496,-0.0586 -1.334678,-0.16459 -0.41538,-0.11006 -0.727604,-0.0858 -0.727604,0.0565 0,0.47451 1.390925,1.89973 2.347132,2.40501 1.397058,0.73822 1.629563,0.68725 1.347724,-0.29547 z m 2.643468,0.76007 c -0.0064,-0.0364 -0.167685,-0.66146 -0.358362,-1.38906 -0.294995,-1.12567 -0.451054,-1.3354 -1.046658,-1.40664 -0.819599,-0.098 -0.834792,-0.009 -0.278225,1.62409 0.345549,1.01413 0.53676,1.23776 1.058333,1.23776 0.350124,0 0.631333,-0.0298 0.624912,-0.0661 z m 1.670746,-0.60862 c 0.328025,-0.12588 0.325059,-0.34094 -0.02191,-1.5875 -0.375123,-1.34774 -0.855255,-1.80032 -1.243488,-1.17214 -0.1435,0.23218 -0.04449,0.70059 0.544155,2.57451 0.117083,0.37273 0.186158,0.39046 0.721235,0.18513 z m 9.188847,-0.51586 c 0,-0.3638 -0.04638,-0.66146 -0.103063,-0.66146 -0.05669,0 -1.078516,-0.18504 -2.270734,-0.4112 -1.671442,-0.31706 -2.253538,-0.33993 -2.54277,-0.0999 -0.663887,0.55098 -0.415793,0.72444 1.807712,1.26392 2.938283,0.7129 3.108855,0.70789 3.108855,-0.0914 z m -6.766132,-1.69278 c -0.09797,-0.23314 -0.309917,-0.78107 -0.47099,-1.21764 -0.399312,-1.08226 -0.372335,-1.06548 -0.918382,-0.57132 -0.453673,0.41057 -0.459462,0.52561 -0.08745,1.73793 0.393941,1.28378 0.405382,1.29366 1.026666,0.88658 0.418203,-0.27402 0.568721,-0.5534 0.450156,-0.83555 z m 7.244535,-0.8846 c 0.09504,-0.79796 -0.08656,-0.87484 -2.661216,-1.12657 -1.678146,-0.16409 -1.785937,-0.14206 -1.785937,0.36498 0,0.54258 0.142311,0.60751 2.910416,1.32787 1.23112,0.32038 1.44031,0.2433 1.536737,-0.56628 z m -5.819828,-0.80427 c 0.244372,-0.88505 0.12632,-2.57822 -0.17871,-2.56316 -0.09262,0.005 -0.378806,0.29757 -0.635963,0.6511 -0.41026,0.56401 -0.426683,0.77374 -0.134017,1.71147 0.404384,1.2957 0.632971,1.34403 0.94869,0.20059 z m -9.210659,0.22388 c 0,-0.20881 -0.116115,-0.68506 -0.258035,-1.05834 -0.217318,-0.57159 -0.424172,-0.67868 -1.31088,-0.67868 -1.438627,0 -4.237657,-1.0576 -5.550115,-2.09709 -1.266859,-1.00337 -1.414907,-0.6096 -0.316322,0.84134 1.11774,1.47625 1.977858,2.05234 4.081528,2.73375 2.222236,0.71982 3.353824,0.80721 3.353824,0.25902 z m 2.38125,-0.29545 c 0,-0.19183 -0.112527,-0.64476 -0.25006,-1.0065 -0.186523,-0.49059 -0.38821,-0.62158 -0.79375,-0.51553 -0.60017,0.15695 -0.669285,0.50942 -0.293629,1.49747 0.186523,0.49059 0.38821,0.62159 0.79375,0.51553 0.299029,-0.0782 0.543689,-0.29913 0.543689,-0.49097 z m 2.042856,-0.33202 c 0.210709,-0.13388 0.267682,-0.54654 0.16382,-1.18657 -0.174901,-1.07778 -0.288084,-1.14946 -0.996784,-0.63124 -0.369871,0.27045 -0.436763,0.54122 -0.294129,1.19062 0.183703,0.8364 0.511085,1.01858 1.127093,0.62719 z m 10.392561,-0.98381 c 0,-0.50663 -0.769969,-0.79502 -2.711979,-1.01576 -1.226876,-0.13946 -1.521354,-0.0993 -1.521354,0.20749 0,0.25195 0.513805,0.48178 1.521354,0.68053 0.836745,0.16505 1.640416,0.34269 1.785937,0.39474 0.590942,0.21139 0.926042,0.11478 0.926042,-0.267 z m -8.202083,-0.65491 c 0.15576,-0.29104 0.457604,-0.52916 0.670766,-0.52916 0.50161,0 0.488479,-0.16356 -0.07289,-0.90778 -0.382677,-0.50733 -0.561446,-0.56443 -1.058333,-0.33803 -0.594961,0.27108 -0.768943,1.02132 -0.437277,1.88563 0.217926,0.5679 0.556942,0.52612 0.897734,-0.11066 z m -3.460383,-1.48693 c 2.067494,-0.92532 3.918839,-2.43059 4.506318,-3.66395 0.790527,-1.65964 1.160822,-4.19606 0.784905,-5.3764 -1.218245,-3.8252 -3.088709,-5.49685 -7.173487,-6.41098 -1.165095,-0.26074 -1.815094,-0.26122 -3.155579,-0.002 -0.928529,0.17933 -2.04542,0.38681 -2.481983,0.46107 -1.663676,0.28298 -3.814405,3.04786 -4.339359,5.57847 -0.943259,4.54713 0.267472,7.57367 3.738035,9.34422 2.286829,1.16665 5.606752,1.19523 8.12115,0.0699 z m -10.45615,-9.2008 c -0.458394,-1.19455 1.782598,-4.39352 3.077823,-4.39352 0.778622,0 0.608918,0.59262 -0.34095,1.19063 -0.481597,0.3032 -1.137237,1.12325 -1.535355,1.92037 -0.85108,1.70405 -0.984933,1.84693 -1.201518,1.28252 z m 2.923037,-1.76918 c -0.216043,-0.34957 1.057706,-1.73242 2.094209,-2.2736 1.050703,-0.54859 1.628285,-0.0172 0.686427,0.63151 -0.357876,0.24649 -0.966341,0.78117 -1.352148,1.18817 -0.748162,0.78926 -1.143579,0.91491 -1.428488,0.45392 z m 2.816228,-0.34548 c -0.240811,-0.29016 -0.132578,-0.51169 0.51707,-1.05833 0.451897,-0.38025 0.984064,-0.69136 1.182592,-0.69136 0.759031,0 0.680421,0.6039 -0.173712,1.33449 -1.031497,0.88229 -1.118624,0.906 -1.52595,0.4152 z m 2.21698,0.0908 c -0.439867,-0.71172 1.136611,-1.47557 1.897338,-0.91931 0.419381,0.30666 0.386906,0.3736 -0.371441,0.76576 -0.968914,0.50105 -1.291097,0.53347 -1.525897,0.15355 z m 13.042956,11.05795 c -0.214614,-0.32742 -0.908915,-0.99423 -1.542894,-1.48179 l -1.152689,-0.88647 -0.473752,0.58505 c -0.784061,0.96828 -0.613167,1.53747 0.518437,1.72674 0.545704,0.0913 1.289844,0.26586 1.653646,0.38798 1.21724,0.40858 1.434926,0.33622 0.997252,-0.33151 z m -4.846794,-1.43114 c 0.210341,-0.83806 0.02342,-1.06714 -0.509688,-0.62469 -0.2218,0.18408 -0.40327,0.69187 -0.40327,1.12843 0,0.65087 0.06677,0.73834 0.370917,0.48592 0.204002,-0.16931 0.447924,-0.61465 0.542041,-0.98966 z m 0.935075,-3.06678 c -0.0033,-0.48139 -0.05313,-0.51937 -0.260533,-0.19844 -0.331501,0.51297 -0.331501,0.79375 0,0.79375 0.145521,0 0.262761,-0.26789 0.260533,-0.59531 z"
       id="path1430" />
  </g>
</svg>
